<?xml version="1.0" standalone="no"?>
<!DOCTYPE svg PUBLIC "-//W3C//DTD SVG 1.1//EN" "http://www.w3.org/Graphics/SVG/1.1/DTD/svg11.dtd" >
<svg xmlns="http://www.w3.org/2000/svg">
  <metadata>Created by iconfont</metadata>
  <defs>
  <font id="icon_font" horiz-adv-x="1024">
    <font-face
      font-family="icon_font"
      font-weight="400"
      font-stretch="normal"
      units-per-em="1024"
      ascent="896"
      descent="-128"
    />
      <missing-glyph />
      
      <glyph glyph-name="biaoqing1" unicode="&#58990;" d="M512 896C229.2 896 0 666.8 0 384s229.2-512 512-512 512 229.2 512 512S794.8 896 512 896z m0-960C265-64 64 137 64 384S265 832 512 832s448-201 448-448-201-448-448-448zM320 490.7m-64 0a64 64 0 1 1 128 0 64 64 0 1 1-128 0ZM704 490.7m-64 0a64 64 0 1 1 128 0 64 64 0 1 1-128 0ZM512 85.3c117.8 0 213.3 95.5 213.3 213.3H298.7c0-117.8 95.5-213.3 213.3-213.3z"  horiz-adv-x="1024" />
      
      <glyph glyph-name="jianpan1" unicode="&#58991;" d="M513.788813-42.289925c-113.566274 0-220.223734 44.167967-300.444149 124.388381-80.220415 80.220415-124.388382 186.877876-124.388382 300.44415s44.167967 220.227983 124.388382 300.448398c165.543834 165.548083 435.348714 165.548083 600.892548 0 165.548083-165.548083 165.548083-435.348714 0-600.892548-80.220415-80.220415-186.877876-124.388382-300.44415-124.388381z m0 785.973112c-92.538158 0-185.072066-35.453344-255.379651-105.756681-68.2001-68.204349-105.75668-158.63927-105.756681-255.3839s37.556581-187.175303 105.756681-255.379652c68.204349-68.2001 158.936697-106.054108 255.379651-105.75668 96.74888 0 187.179552 37.556581 255.379652 105.75668 140.912598 140.912598 140.912598 369.850954 0 510.759303-70.303336 70.307585-162.841494 105.75668-255.379652 105.756681zM318.672199 554.294174h46.313693c11.047303 0 19.545228-8.497925 19.545228-19.120332v-46.313693c0-10.622407-8.497925-19.120332-19.120332-19.120332h-46.738589c-10.622407-0.424896-19.120332 8.073029-19.120332 18.695436v46.738589c0 10.622407 8.497925 19.120332 19.120332 19.120332zM488.630705 554.294174h46.313693c11.047303 0 19.545228-8.497925 19.545229-19.120332v-46.313693c0-10.622407-8.497925-19.120332-19.120332-19.120332h-46.73859c-10.622407-0.424896-19.120332 8.073029-19.120332 18.695436v46.738589c0 10.622407 8.497925 19.120332 19.120332 19.120332zM658.589212 554.294174h46.313693c11.047303 0 19.545228-8.497925 19.545228-19.120332v-46.313693c0-10.622407-8.497925-19.120332-19.120332-19.120332h-46.738589c-10.622407-0.424896-19.120332 8.073029-19.120332 18.695436v46.738589c0 10.622407 8.497925 19.120332 19.120332 19.120332zM318.672199 426.825295h46.313693c10.622407 0 19.120332-8.497925 19.120332-19.120332v-46.313693c0-10.622407-8.497925-19.120332-19.120332-19.120332H318.672199c-10.622407-0.424896-19.120332 8.073029-19.120332 18.695435v46.73859c0 10.622407 8.497925 19.120332 19.120332 19.120332zM488.630705 426.825295h46.313693c10.622407 0 19.120332-8.497925 19.120332-19.120332v-46.313693c0-10.622407-8.497925-19.120332-19.120332-19.120332h-46.313693c-10.622407-0.424896-19.120332 8.073029-19.120332 18.695435v46.73859c0 10.622407 8.497925 19.120332 19.120332 19.120332zM658.589212 426.825295h46.313693c10.622407 0 19.120332-8.497925 19.120332-19.120332v-46.313693c0-10.622407-8.497925-19.120332-19.120332-19.120332h-46.313693c-10.622407-0.424896-19.120332 8.073029-19.120332 18.695435v46.73859c0 10.622407 8.497925 19.120332 19.120332 19.120332zM458.887967 235.621975h106.224066c17.420747 0 31.86722-14.446473 31.86722-31.86722s-14.446473-31.86722-31.86722-31.86722h-106.224066c-17.420747 0-31.86722 14.446473-31.86722 31.86722s14.446473 31.86722 31.86722 31.86722z"  horiz-adv-x="1024" />
      
      <glyph glyph-name="fuzhi" unicode="&#58987;" d="M677.6 663.2h-503.2c-61.6 0-112-50.4-112-112v-503.2c0-61.6 50.4-112 112-112h503.2c61.6 0 112 50.4 112 112V551.2c-0.8 62.4-50.4 112-112 112z m56-614.4c0-31.2-24.8-56-56-56h-503.2c-31.2 0-56 24.8-56 56v503.2c0 31.2 24.8 56 56 56h503.2c31.2 0 56-24.8 56-56v-503.2zM230.4 464h391.2v-56h-391.2zM230.4 328h391.2v-56h-391.2zM230.4 192.8h223.2v-56h-223.2zM844.8 831.2h-503.2c-61.6 0-112-50.4-112-112h56c0 31.2 24.8 56 56 56h503.2c31.2 0 56-24.8 56-56v-503.2c0-31.2-24.8-56-56-56v-56c61.6 0 112 50.4 112 112V719.2c0 62.4-50.4 112-112 112z"  horiz-adv-x="1024" />
      
      <glyph glyph-name="hongbao1" unicode="&#58986;" d="M808.075-128H215.9375C145.85-128 89.0625-73 89.0625-5.1125V693.375c98.225-100.7 255.8125-166.025 433.5125-166.025 165.475 0 313.4625 56.6625 412.3625 145.775v-678.2375c0-67.875-56.8-122.8875-126.8625-122.8875z m-296.075 532.5c-93.425 0-169.175-73.35-169.175-163.85s75.75-163.825 169.175-163.825S681.1875 150.175 681.1875 240.65s-75.7375 163.825-169.1875 163.825zM91.675 798.0125C103.5625 853.9375 154.675 896 215.9375 896h592.1375c70 0 126.8625-55 126.8625-122.875v-3.2875C862.8125 675.125 705.5125 609.275 522.575 609.275c-200.6125 0-370.525 79.1-430.9 188.75z m0 0"  horiz-adv-x="1024" />
      
      <glyph glyph-name="liwu1" unicode="&#58984;" d="M50.326643 508.095133h426.935534v213.209018a50.352518 50.352518 0 0 1-14.735745 35.577961l-124.380552 124.380552a50.313706 50.313706 0 0 1-71.155922 0l-3.79067-3.79067a50.326643 50.326643 0 0 1 0-71.155922l72.643728-72.643728a7.762464 7.762464 0 0 0-5.485475-13.247939H50.326643A50.326643 50.326643 0 0 1 0 670.097762v-111.675986a50.326643 50.326643 0 0 1 50.326643-50.326643z m532.841421 0h426.935534a50.326643 50.326643 0 0 1 50.326643 50.326643v111.663048a50.326643 50.326643 0 0 1-50.326643 50.326643H730.0727a7.762464 7.762464 0 0 0-5.420788 13.247939l72.643728 72.656666a50.313706 50.313706 0 0 1 0 71.155922l-3.79067 3.79067a50.313706 50.313706 0 0 1-71.155922 0l-124.484052-124.380552a50.300768 50.300768 0 0 1-14.735744-35.577961z m0-105.880013h424.063422v-479.901414a50.326643 50.326643 0 0 0-50.326643-50.313706H583.168064z m-530.228058 0h424.076359V-128H103.253712a50.313706 50.313706 0 0 0-50.313706 50.313706z m0 0"  horiz-adv-x="1060" />
      
      <glyph glyph-name="shipin1" unicode="&#58983;" d="M1014.64018 705.038843C1014.64018 810.511662 926.770966 896 818.366693 896H196.273487C87.869215 896 0 810.511662 0 705.038843v-642.077686c0-105.472818 87.794812-190.961157 196.273487-190.961157h622.093206c108.404272 0 196.273487 85.503219 196.273487 190.961157a21.23444 21.23444 0 0 0 8.779481 17.127428 22.231432 22.231432 0 0 0 19.255337 3.333227l74.194057-48.331788c42.052227-12.261513 86.306765 11.160357 98.821245 52.319756a76.530291 76.530291 0 0 1 3.318346 22.216551V661.409286c0 42.945056-35.57922 77.765371-79.431984 77.765371a81.306924 81.306924 0 0 1-22.707607-3.229064l-77.155272-49.209736a19.850556 19.850556 0 0 0-17.231592 2.976095 18.957727 18.957727 0 0 0-7.842011 15.312011zM374.422553 214.236082V547.29091c0 42.959936 35.57922 77.780251 79.446865 77.780252a80.815869 80.815869 0 0 0 42.498641-12.068067l268.562843-166.512533a76.827901 76.827901 0 0 0 24.612308-107.332878 78.866526 78.866526 0 0 0-24.597428-24.091492L496.368059 148.523897c-37.067267-22.975456-86.128199-12.201991-109.609591 24.091492a76.441009 76.441009 0 0 0-12.335915 41.665335z m-91.529812 0"  horiz-adv-x="1219" />
      
      <glyph glyph-name="xiangji1" unicode="&#58982;" d="M1112.3912707-112.55879763999997H136.50520239A102.57116878 102.57116878 0 0 0 33.79019492-10.145850379999956V681.38606804a102.5855531 102.5855531 0 0 0 102.71500747 102.45609871h218.28917061l64.20946502 102.4417144c0 14.15369945 37.18222858 25.60323682 51.36469515 25.60323681h308.17379105c14.18246659 0 51.36469517-11.50707315 51.36469662-25.60323681l64.20946503-102.4417144h218.27478483a102.59993741 102.59993741 0 0 0 102.7293918-102.44171441v-691.54630272a102.5855531 102.5855531 0 0 0-102.7293918-102.41294726z m-487.94303341 793.98801714c-184.38645594 0-333.86333077-149.05974308-333.86333078-332.95714866s149.49125767-332.98591579 333.87771509-332.9859158 333.84894646 149.05974308 333.84894646 332.92838002c0 183.88302126-149.47687485 332.94276434-333.84894646 332.94276582z m0-563.4581986c-127.68535523-0.10068722-231.11955469 103.16090639-231.11955469 230.45789849s103.43419945 230.50104993 231.133939 230.50104993 231.133939-103.18967501 231.133939-230.50104993-103.49173522-230.55858571-231.133939-230.55858571z m0 0"  horiz-adv-x="1232" />
      
      <glyph glyph-name="fenxiang11" unicode="&#58989;" d="M770.759 264.519c-50.197 0-91.202-26.866-110.291-68.578L417.97 299.16c14.14 21.917 21.917 48.782 21.917 77.77 0 12.018-1.414 24.037-4.242 35.349l154.83 120.188c20.504-15.554 46.662-24.745 75.649-24.745 69.992 0 122.31 52.318 122.31 121.603s-52.318 121.602-122.31 121.602-121.602-52.317-121.602-121.602c0-17.675 3.535-33.936 9.19-48.076L410.9 471.667c-28.28 42.42-74.94 72.113-127.965 72.113-86.96 0-156.952-69.992-156.952-156.952s69.992-156.952 156.952-156.952c32.522 0 62.922 8.484 87.667 24.038l278.554-118.775c3.535-65.75 54.438-114.532 121.603-114.532 69.992 0 121.602 52.317 121.602 121.602s-52.317 122.31-121.602 122.31zM666.124 700.025c34.642 0 69.992-26.159 69.992-69.992s-26.159-69.992-69.992-69.992-69.992 34.642-69.992 69.992 35.35 69.992 69.992 69.992zM282.935 282.193c-52.317 0-96.15 43.834-96.15 96.151s43.833 96.15 96.15 96.15 96.15-43.833 96.15-96.15c-0.706-52.317-43.833-96.15-96.15-96.15zM770.76 72.924c-43.834 0-69.993 26.159-69.993 69.992s34.643 69.992 69.993 69.992 69.992-26.158 69.992-69.992c-0.707-43.833-26.866-69.992-69.992-69.992z"  horiz-adv-x="1024" />
      
      <glyph glyph-name="dian" unicode="&#58980;" d="M43.588 368.385c0-62.33 50.525-112.884 112.884-112.884s112.884 50.525 112.884 112.884c0 62.33-50.525 112.884-112.884 112.884-62.33 0-112.884-50.525-112.884-112.884zM412.295 368.385c0-62.33 50.525-112.884 112.884-112.884 62.33 0 112.884 50.525 112.884 112.884 0 62.33-50.525 112.884-112.884 112.884-62.33 0-112.884-50.525-112.884-112.884zM781.025 368.385c0-62.33 50.525-112.884 112.884-112.884 62.33 0 112.884 50.525 112.884 112.884 0 62.33-50.525 112.884-112.884 112.884-62.33 0-112.884-50.525-112.884-112.884z"  horiz-adv-x="1024" />
      
      <glyph glyph-name="nan11" unicode="&#58979;" d="M355.939256 896C159.570371 896 0 736.429629 0 540.060744s159.570371-355.939256 355.939256-355.939256c196.72936 0 355.939256 159.570371 355.939256 355.939256S552.668616 896 355.939256 896z m201.26534-364.74086a23.090442 23.090442 0 0 0-23.130494 23.150521v128.168973l-84.731707-85.442644a169.713744 169.713744 0 0 0-15.300171-218.608204 169.553532 169.553532 0 0 0-119.267237-51.267589h-2.132812c-92.56203 0-168.752476 75.099007-169.813876 167.681063-1.071413 93.633443 74.097687 170.885288 167.671051 171.946688h2.142825a167.821249 167.821249 0 0 0 104.307515-36.307867l84.020769 85.112209-128.168973-0.350462a23.320745 23.320745 0 1 0-0.350462 46.631477l184.413123 0.710937h5.006601c0.360475 0 0.710937-0.350462 1.071412-0.350462a1.311729 1.311729 0 0 0 1.071413-0.360475c0.350462 0 0.710937-0.350462 1.061399-0.350462l0.710937-0.360476h0.720951l1.061399-0.350462c0.360475 0 0.710937-0.360475 1.071412-0.710937a0.771016 0.771016 0 0 0 0.710938-0.72095c0.350462 0 0.350462-0.350462 0.710937-0.350462h0.350462a0.771016 0.771016 0 0 0 0.72095-0.710938c0.350462-0.360475 0.710937-0.360475 1.0614-0.710937l0.710937-0.710937c0.360475-0.360475 0.72095-0.710937 1.071413-0.710938l0.710937-0.72095 1.071412-1.061399c0-0.360475 0.350462-0.360475 0.350462-0.710938 0.360475-0.360475 0.72095-0.710937 0.720951-1.071412v-0.360475a0.340449 0.340449 0 0 1 0.350462-0.350462c0.360475-0.360475 0.710937-0.710937 0.710937-1.071413s0.360475-0.350462 0.360475-0.710937c0.350462-0.360475 0.350462-0.710937 0.710938-1.421875v-0.710937c0-0.360475 0.360475-0.710937 0.360475-1.421874a1.321743 1.321743 0 0 1 0.350462-1.071413c0-0.360475 0.350462-0.710937 0.350462-1.071412v-1.78235a1.28169 1.28169 0 0 1 0.360475-1.0614V554.75011c0-12.816897-10.684085-23.49097-23.140507-23.49097z m-0.540713-5.407128M312.091449 585.110135a93.553337 93.553337 0 1 1 93.553337-93.553336 93.663482 93.663482 0 0 1-93.553337 93.553336z m0 0"  horiz-adv-x="1048" />
      
      <glyph glyph-name="11shiliangzhinengduixiang" unicode="&#58978;" d="M356.701185 896C159.730505 896 0.039925 736.379289 0 539.41859v-0.119775c0-196.97068 159.61073-356.671241 356.58141-356.701186s356.66126 159.61073 356.701185 356.58141v0.119776C713.282595 736.259513 553.661884 895.960075 356.701185 896z m50.385527-464.588896a158.702433 158.702433 0 0 0-82.575171 23.016844l-38.767311-38.767312 39.595758-39.595758a25.408359 25.408359 0 0 0-35.932627-35.932626l-39.555833 39.615721-43.917654-43.917655a25.408359 25.408359 0 0 0-35.932626 35.932626l43.917654 43.917655-48.299438 48.349345a25.408359 25.408359 0 0 0 35.932626 35.932626l48.329382-48.329382 35.88272 35.932626a159.411104 159.411104 0 1 0 121.352464-56.044916z m0 0M407.086712 684.077355a93.255147 93.255147 0 1 1 93.255147-93.28509 93.354959 93.354959 0 0 1-93.255147 93.255146z m0 0"  horiz-adv-x="1048" />
      
      <glyph glyph-name="nan3" unicode="&#58977;" d="M448.528926-128C201.267697-128 0 73.267697 0 320.528926 0 567.974129 201.267697 769.057851 448.528926 769.057851c247.445203 0 448.528926-201.267697 448.528925-448.528925 0.183974-247.261229-201.083723-448.528926-448.528925-448.528926z m0 830.275243c-210.466403 0-381.746317-171.279914-381.746317-381.746317s171.279914-381.746317 381.746317-381.746317 381.746317 171.279914 381.746317 381.746317-171.279914 381.746317-381.746317 381.746317zM448.528926-99.667984c-231.623428 0-420.19691 188.389508-420.19691 420.19691 0 231.623428 188.389508 420.19691 420.19691 420.196909 231.623428 0 420.19691-188.389508 420.196909-420.196909 0-231.623428-188.389508-420.19691-420.196909-420.19691z m0 830.275242c-226.104204 0-410.078333-183.974129-410.078333-410.078332s183.974129-410.078333 410.078333-410.078333 410.078333 183.974129 410.078332 410.078333c0.183974 226.104204-183.790155 410.078333-410.078332 410.078332zM759.997125 598.513834c-9.014732 0-17.293568 3.495508-23.732662 9.750629-13.062163 13.062163-13.062163 34.219188 0 47.281351L917.846928 837.128279c6.25512 6.25512 14.71793 9.750629 23.732662 9.750629s17.293568-3.495508 23.732663-9.750629c13.062163-13.062163 13.062163-34.219188 0-47.281351L783.729788 608.264463c-6.439095-6.439095-14.901904-9.750629-23.732663-9.750629zM759.997125 626.84585c-1.287819 0-2.575638 0.551922-3.495508 1.471793-2.023715 2.023715-2.023715 5.151276 0 7.174991l181.582465 181.582465c2.023715 2.023715 5.151276 2.023715 7.174991 0s2.023715-5.151276 0-7.174991L763.492634 628.317643c-0.919871-0.919871-2.20769-1.471793-3.495509-1.471793zM967.703917 572.573482c-18.397413 0-33.483291 15.085879-33.483292 33.483291V800.701401c0 2.943586-2.391664 5.519224-5.519224 5.519224H734.056773c-18.397413 0-33.483291 15.085879-33.483291 33.483292S715.65936 873.187208 734.056773 873.187208h194.828602c39.922386 0 72.485807-32.563421 72.485807-72.485807v-194.828602c0-18.397413-15.085879-33.299317-33.667265-33.299317zM967.519943 600.905498c-2.759612 0-4.967301 2.20769-4.967302 4.967301V800.517427c0 18.765361-15.269853 33.85124-33.85124 33.85124H734.056773c-2.759612 0-4.967301 2.20769-4.967301 4.967301 0 2.759612 2.20769 4.967301 4.967301 4.967302h194.644628c24.284585 0 43.969817-19.685232 43.969817-43.969817v-194.644628c-0.183974-2.575638-2.391664-4.783327-5.151275-4.783327z"  horiz-adv-x="1024" />
      
      <glyph glyph-name="13" unicode="&#58976;" d="M235.63723 439.880705c0 185.505971 150.897755 336.431356 336.432379 336.431356 185.469132 0 336.431356-150.925385 336.431356-336.431356 0-185.502901-150.9612-336.431356-336.431356-336.431356C386.533962 103.449349 235.63723 254.377804 235.63723 439.880705M179.498652 439.880705c0-98.125855 36.527938-187.760315 96.236831-256.635985l-82.152045-82.220606-78.311577 78.277808c-10.987239 11.051707-28.708855 11.051707-39.629579 0-11.050684-10.917654-11.050684-28.64234 0-39.630602l78.310553-78.30953-78.310553-78.278831c-11.050684-10.9504-11.050684-28.641317 0-39.663348 5.458315-5.459339 12.605086-8.220219 19.815301-8.220219 7.209192 0 14.355963 2.76088 19.814278 8.220219l78.311577 78.314647 78.378092-78.314647c5.390777-5.459339 12.536524-8.220219 19.745716-8.220219 7.143701 0 14.356986 2.76088 19.816325 8.220219 10.916631 11.022031 10.916631 28.712949 0 39.663348l-78.311577 78.278831 82.219583 82.255399c68.945255-59.84704 158.512177-96.204086 256.637008-96.204086 216.404702 0 392.436904 175.99741 392.436904 392.46658 0 216.438471-176.032202 392.540258-392.436904 392.540258C355.667977 832.419939 179.498652 656.319176 179.498652 439.880705"  horiz-adv-x="1024" />
      
      <glyph glyph-name="yuandian" unicode="&#58975;" d="M512 384m-512 0a512 512 0 1 1 1024 0 512 512 0 1 1-1024 0Z"  horiz-adv-x="1024" />
      
      <glyph glyph-name="tishi" unicode="&#59005;" d="M512-128a512 512 0 1 0 512 512 512 512 0 0 0-512-512z m0 853.333333a68.266667 68.266667 0 1 1 68.266667-68.266666 68.266667 68.266667 0 0 1-68.266667 68.266666z m68.266667-307.2a68.266667 68.266667 0 0 1-136.533334 0v-341.333333a68.266667 68.266667 0 0 1 136.533334 0V418.133333z"  horiz-adv-x="1024" />
      
      <glyph glyph-name="chenggong" unicode="&#58974;" d="M775.625 896c-282.75 0-512-229.25-512-512 0-282.75 229.25-512 512-512 282.75 0 512 229.25 512 512 0 282.75-229.25 512-512 512z m258.375-410.5L750.5 200.875c-7.5-7.625-17.75-12-28.5-12.125-10.75 0-21 4.25-28.625 11.875L531.25 363.25c-15.75 15.875-15.75 41.625 0 57.5 7.625 7.625 17.875 11.875 28.625 11.875 10.75 0 21-4.25 28.625-11.875l133.375-133.875 254.75 256c7.625 7.625 17.875 11.875 28.625 11.875s21-4.25 28.625-11.875c15.875-15.875 15.875-41.5 0.125-57.375z"  horiz-adv-x="1707" />
      
      <glyph glyph-name="shibai" unicode="&#58973;" d="M862.993016 747.9100559999999a505.388985 505.388985 0 0 1-714.785319 0A505.608402 505.608402 0 0 1 863.066155 32.90532099999996a505.462124 505.462124 0 0 1-0.146278 714.931597zM725.857799 232.062225a43.736992 43.736992 0 0 0-61.802271-61.802271L505.41751 328.605418 347.145185 170.259954a43.736992 43.736992 0 0 0-61.802271 61.802271l158.491741 158.345464-158.491741 158.418602a43.736992 43.736992 0 0 0 61.802271 61.802271L505.41751 452.20996 663.909251 610.701701a43.736992 43.736992 0 0 0 61.802271-61.802271L567.292919 390.407689l158.56488-158.345464z"  horiz-adv-x="1024" />
      
      <glyph glyph-name="yaoqingma1" unicode="&#58971;" d="M1014.920533 570.7776V684.2368c0 31.812267-12.561067 62.2592-35.157333 84.718933-22.596267 22.459733-53.179733 35.157333-85.060267 35.0208H174.8992c-31.880533 0-62.464-12.629333-84.923733-35.0208-22.596267-22.459733-35.157333-52.974933-35.157334-84.718933v-113.527467c88.405333 0 160.017067-69.632 160.017067-155.4432 0-85.8112-71.611733-155.4432-160.017067-155.4432V146.432c0-31.812267 12.561067-62.2592 35.157334-84.718933 22.596267-22.459733 53.179733-35.157333 85.060266-35.0208H894.976c31.880533 0 62.464 12.629333 84.923733 35.0208 22.596267 22.459733 35.157333 52.974933 35.157334 84.718933V259.8912c-88.405333 0-160.017067 69.632-160.017067 155.4432-0.136533 85.947733 71.611733 155.4432 159.880533 155.4432z m-262.7584-142.677333c0-20.8896-17.134933-37.819733-37.956266-37.819734H356.215467c-20.821333 0-37.956267 17.066667-37.956267 37.819734 0 20.8896 17.134933 37.819733 37.956267 37.819733h357.9904c20.957867 0 37.956267-16.930133 37.956266-37.819733z m0 0"  horiz-adv-x="1024" />
      
      <glyph glyph-name="yanzhengma1" unicode="&#58969;" d="M963.811762 677.837635a72.827448 72.827448 0 0 1-57.5964 63.932004 1357.867133 1357.867133 0 0 0-185.908381 42.813325A690.772827 690.772827 0 0 0 554.23736 881.664896a76.027248 76.027248 0 0 1-88.826448 0A435.812762 435.812762 0 0 0 297.933379 785.28692a624.280982 624.280982 0 0 0-180.852697-44.797201c-31.67802-5.11968-55.420536-31.742016-56.828448-63.868008 0 0-1.91988-160.373977-1.91988-301.613149C58.268358 119.344541 359.945503-127.936004 510.72008-127.936004s406.374602 174.453097 447.332042 499.04081c10.23936 191.732017 3.1998 306.092869 3.1998 306.092869l2.55984 0.63996z m-164.277733-197.427661l-314.988313-297.133429a42.813324 42.813324 0 0 0-52.47672-5.11968l-8.255484 7.03956-173.813137 180.788701a43.389288 43.389288 0 1 0 63.932004 58.812324L456.96344 274.662834l283.758265 268.335229a43.389288 43.389288 0 0 0 58.748328-63.868009v1.27992z"  horiz-adv-x="1024" />
      
      <glyph glyph-name="tuce" unicode="&#58970;" d="M837.818 104.727h-512a93.09 93.09 0 0 0-93.09 93.091v512A186.182 186.182 0 0 0 418.908 896h418.91A186.182 186.182 0 0 0 1024 709.818V290.91a186.182 186.182 0 0 0-186.182-186.182z m-52.643-93.09A186.182 186.182 0 0 0 605.091-128H186.18A186.182 186.182 0 0 0 0 58.182V477.09a186.182 186.182 0 0 0 139.636 180.13v-505.948a139.636 139.636 0 0 1 139.637-139.637h505.902z"  horiz-adv-x="1024" />
      
      <glyph glyph-name="_mars_bfang" unicode="&#58966;" d="M511.5 831.8c-246.4 0-447-200.5-447-447 0.1-246.4 200.6-446.9 447-446.9s446.9 200.5 446.9 446.9c0 246.4-200.5 447-446.9 447zM705.3 359l-280-161.7c-19.8-11.4-44.6 2.9-44.6 25.8V546.5c0 22.9 24.8 37.2 44.6 25.8l280.1-161.7c19.8-11.5 19.8-40.2-0.1-51.6z m0 0"  horiz-adv-x="1024" />
      
      <glyph glyph-name="nan1" unicode="&#59427;" d="M444.928 477.696h-2.048c-91.648-1.024-164.864-76.8-163.84-167.936 1.024-90.112 75.776-163.84 165.888-163.84h2.048c44.544 0.512 86.016 18.432 116.736 50.176 30.72 31.744 47.616 73.728 47.104 118.272-1.024 89.6-75.264 163.328-165.888 163.328zM515.584 880.64C239.616 880.64 15.36 656.384 15.36 380.416s224.256-500.224 500.224-500.224c276.48 0 500.224 224.256 500.224 500.224S792.064 880.64 515.584 880.64z m282.112-520.192c-18.432 0-33.28 14.848-33.28 33.28v184.32l-121.856-122.88c29.184-39.424 46.592-88.064 47.104-140.8 1.024-65.024-23.552-126.976-69.12-173.568-45.568-46.592-106.496-72.704-171.52-73.728h-3.072c-133.12 0-242.688 108.032-244.224 241.152-1.536 134.656 106.496 245.76 241.152 247.296h3.072c56.32 0 108.544-19.456 150.016-52.224L716.8 625.664l-184.32-0.512c-18.432 0-33.792 14.848-33.792 33.28s14.848 33.792 33.28 33.792l265.216 1.024H804.352c0.512 0 1.024-0.512 1.536-0.512 0.512 0 1.024 0 1.536-0.512 0.512 0 1.024-0.512 1.536-0.512l1.024-0.512h1.024l1.536-0.512c0.512 0 1.024-0.512 1.536-1.024 0.512 0 1.024-0.512 1.024-1.024 0.512 0 0.512-0.512 1.024-0.512h0.512c0.512 0 1.024-0.512 1.024-1.024 0.512-0.512 1.024-0.512 1.536-1.024l1.024-1.024c0.512-0.512 1.024-1.024 1.536-1.024l1.024-1.024 1.536-1.536c0-0.512 0.512-0.512 0.512-1.024 0.512-0.512 1.024-1.024 1.024-1.536v-0.512s0-0.512 0.512-0.512c0.512-0.512 1.024-1.024 1.024-1.536 0-0.512 0.512-0.512 0.512-1.024 0.512-0.512 0.512-1.024 1.024-2.048v-1.024c0-0.512 0.512-1.024 0.512-2.048 0-0.512 0-1.024 0.512-1.536 0-0.512 0.512-1.024 0.512-1.536v-2.56c0-0.512 0-1.024 0.512-1.536V394.24c0-18.432-15.36-33.792-33.28-33.792z"  horiz-adv-x="1024" />
      
      <glyph glyph-name="nv1" unicode="&#59015;" d="M512.074701 830.709995C265.405719 830.750927 65.406662 630.819408 65.364707 384.149403v-0.149403c-0.040932-246.670006 199.890586-446.668039 446.559568-446.709995 246.668982-0.040932 446.668039 199.890586 446.709995 446.559569v0.149403c0.040932 246.671029-199.890586 446.669062-446.559569 446.711018z m63.1032-581.818136c-37.845956 0-73.231885 10.531867-103.387695 28.823466l-48.547692-48.547693 49.586348-49.585325c12.418844-12.418844 12.418844-32.552393 0-44.971237-12.417821-12.417821-32.552393-12.417821-44.971237 0l-49.586349 49.586348-55.056943-55.056943c-12.418844-12.417821-32.552393-12.417821-44.971238 0-12.417821 12.418844-12.417821 32.552393 0 44.971237l55.056944 55.056944-60.528562 60.528561c-12.417821 12.418844-12.417821 32.553417 0 44.971238 12.418844 12.418844 32.552393 12.418844 44.971237 0l60.528562-60.528562 44.937468 44.937469c-29.722952 34.857902-47.673789 80.057337-47.673789 129.45642 0 110.259196 89.381703 199.641923 199.641923 199.641923 110.259196 0 199.642946-89.381703 199.642946-199.6409 0-110.26022-89.382727-199.642946-199.641923-199.642946zM575.176878 565.321672c-64.397682 0-116.78789-52.390207-116.78789-116.78789s52.390207-116.789936 116.78789-116.789936 116.789936 52.392254 116.789936 116.789936-52.392254 116.78789-116.789936 116.78789z"  horiz-adv-x="1024" />
      
      <glyph glyph-name="zhuanfa" unicode="&#58968;" d="M1125.888 527.36c0-10.752-4.096-21.504-11.776-28.672l-321.536-327.68c-7.168-7.68-17.408-12.288-28.16-12.288s-20.992 4.096-28.16 12.288c-7.68 7.68-12.288 17.92-11.776 28.672v163.84H583.68c-40.96 0-77.824-1.536-110.08-3.584-32.768-2.56-64.512-7.168-96.768-13.824-28.672-5.632-56.832-14.848-83.456-27.136-24.064-11.776-46.08-26.624-66.048-44.544-20.48-18.432-37.376-40.448-50.176-64.512-12.8-25.088-23.04-54.272-30.72-88.576-7.68-38.4-11.264-76.8-10.752-115.712 0-23.552 1.024-49.664 3.072-78.848 0-2.56 0.512-7.68 1.536-14.848 1.024-7.68 1.536-12.8 1.536-16.896 0-6.656-2.048-11.776-5.12-15.872-3.584-4.096-9.216-6.656-14.848-6.656-6.656 0-12.288 3.584-17.408 10.752-3.072 4.608-6.144 9.216-8.192 14.336-2.56 5.632-5.12 11.776-8.192 19.456-3.072 7.168-5.12 12.288-6.656 15.36C26.624 53.248 0 149.504 0 220.16c0 84.992 11.264 156.16 33.28 212.992C101.376 605.184 284.672 691.2 583.168 691.2h140.8V855.04c0 11.264 4.096 20.48 11.776 28.672 7.168 7.68 17.408 12.288 28.16 12.288s20.48-4.096 28.16-12.288l321.536-327.68c8.192-7.68 12.288-17.92 12.288-28.672z"  horiz-adv-x="1125" />
      
      <glyph glyph-name="bianji" unicode="&#58965;" d="M631.5 680.2L213.9 262.6c-12.1-12.1-12.1-31.8 0-44l131.9-131.9c12.1-12.1 31.8-12.1 44 0l417.6 417.6c12.1 12.1 12.1 31.8 0 44L675.5 680.2c-12.2 12.1-31.8 12.1-44 0z m153.9 109.9l131.9-131.9c12.1-12.1 12.1-31.8 0-44l-44-44c-12.1-12.1-31.8-12.1-44 0l-131.8 132c-12.1 12.1-12.1 31.8 0 44l44 44c12 12 31.7 12 43.9-0.1zM194.6 207.9L335 67.4c8.1-8.1 4.9-22-6-25.7L116.9-30c-12.2-4.1-23.8 7.5-19.7 19.7l71.7 212.1c3.6 11 17.5 14.2 25.7 6.1z"  horiz-adv-x="1024" />
      
      <glyph glyph-name="feijifenxiang" unicode="&#58963;" d="M707.584 60.416c-4.096 0-8.192 1.024-11.264 3.584l-274.944 188.928c-9.216 6.144-11.264 18.944-5.12 28.16 6.144 9.216 18.944 11.264 28.16 5.12l246.272-169.472 54.784 643.584L160.768 486.4l237.056-165.376c9.216-6.144 11.264-18.944 5.12-28.16-6.144-9.216-18.944-11.264-28.16-5.12l-266.24 185.856c-6.144 4.096-9.216 11.264-8.704 18.432 0.512 7.168 5.12 13.312 11.776 16.384l647.68 304.128c6.656 3.072 14.336 2.56 19.968-1.536 6.144-4.096 9.216-11.264 8.704-18.432L727.04 79.36c-0.512-7.168-5.12-13.312-11.264-16.384-2.56-1.536-5.632-2.56-8.192-2.56zM434.688 60.416c-11.264 0-19.968 8.704-20.48 19.968l-2.048 191.488c0 4.096 1.024 7.68 3.072 11.264l323.584 507.392c6.144 9.216 18.432 12.288 28.16 6.144 9.216-6.144 12.288-18.432 6.144-28.16L453.12 266.24l2.048-185.344c0-11.264-8.704-19.968-20.48-20.48 0.512 0 0.512 0 0 0z"  horiz-adv-x="1024" />
      
      <glyph glyph-name="fanhui" unicode="&#58897;" d="M736-64c-9 0-18.1 3.2-25 9.6L263 360.79999999999995c-13.8 12.8-13.8 33.6 0 46.4L711 822.4c13.8 12.8 36.2 12.8 50 0 13.8-12.8 13.8-33.6 0-46.4L338 384l423-392c13.8-12.8 13.8-33.6 0-46.4-6.9-6.4-16-9.6-25-9.6z"  horiz-adv-x="1024" />
      
      <glyph glyph-name="shouji" unicode="&#59187;" d="M768 864H256c-52.8 0-96-43.2-96-96v-768c0-52.8 43.2-96 96-96h512c52.8 0 96 43.2 96 96V768c0 52.8-43.2 96-96 96z m32-864c0-17.6-14.4-32-32-32H256c-17.6 0-32 14.4-32 32v153.6h576V0z m0 217.6H224V768c0 17.6 14.4 32 32 32h512c17.6 0 32-14.4 32-32v-550.4zM512 64m-48 0a48 48 0 1 1 96 0 48 48 0 1 1-96 0Z"  horiz-adv-x="1024" />
      
      <glyph glyph-name="yanzhengma" unicode="&#58883;" d="M481.882353-67.76470600000005c-135.740235 0-391.529412 203.685647-391.529412 396.920471V694.753882a27.587765 27.587765 0 0 0 5.210353 13.040942 19.937882 19.937882 0 0 0 13.040941 5.210352H129.505882a597.473882 597.473882 0 0 1 177.483294 36.562824 831.668706 831.668706 0 0 1 151.401412 78.305882L471.431529 835.764706H481.882353a15.691294 15.691294 0 0 0 10.450823-2.620235l13.040942-7.830589a705.445647 705.445647 0 0 1 151.401411-80.956235A597.473882 597.473882 0 0 1 834.258824 707.7948240000001h20.871529a27.557647 27.557647 0 0 0 13.040941-5.210353 12.408471 12.408471 0 0 0 5.240471-13.040942v-365.598117C873.411765 133.300706 617.622588-67.76470600000005 481.882353-67.76470600000005zM813.387294 650.360471a697.042824 697.042824 0 0 0-177.483294 39.152941A1201.483294 1201.483294 0 0 0 481.882353 765.259294a702.674824 702.674824 0 0 0-153.991529-75.715765 583.740235 583.740235 0 0 0-177.483295-39.152941v-321.234823c0-151.461647 221.876706-334.305882 331.504942-334.305883a367.706353 367.706353 0 0 1 206.215529 107.068236 338.251294 338.251294 0 0 1 125.289412 227.177411V650.360471zM455.770353 242.98917600000004a37.827765 37.827765 0 0 0-52.193882 0l-107.008 107.068236a35.087059 35.087059 0 0 0 49.603764 49.603764l80.926118-83.57647 206.215529 206.305882a35.087059 35.087059 0 0 0 49.603765-49.603764z m0 0"  horiz-adv-x="1024" />
      
      <glyph glyph-name="sousuo" unicode="&#58892;" d="M446.112323 718.4549489999999c137.567677-0.219798 252.612525-104.59798 266.162424-241.493333 13.562828-136.895354-78.778182-261.818182-213.617777-289.008485-134.852525-27.203232-268.386263 52.156768-308.945455 183.608889s25.018182 272.252121 151.738182 325.779394A267.235556 267.235556 0 0 0 446.112323 718.4549489999999m0 62.060607c-182.794343 0-330.989899-148.195556-330.989899-330.989899s148.195556-330.989899 330.989899-330.989899 330.989899 148.195556 330.989899 330.989899-148.195556 330.989899-330.989899 330.989899z m431.321212-793.341415a30.849293 30.849293 0 0 0-21.94101 9.102223l-157.220202 157.220202c-11.752727 12.179394-11.584646 31.534545 0.37495 43.50707 11.972525 11.972525 31.327677 12.140606 43.494141 0.37495l157.220202-157.220202a31.036768 31.036768 0 0 0 6.723232-33.810101 31.004444 31.004444 0 0 0-28.651313-19.174142z m0 0"  horiz-adv-x="1024" />
      
      <glyph glyph-name="Cartoon-Place" unicode="&#58926;" d="M131.413333 604.970667C287.104 877.909333 732.032 880.554667 889.173333 604.970667c151.466667-265.472-94.890667-663.125333-378.88-663.125334-281.770667 0-527.744 402.261333-378.922666 663.125334zM512 554.666667c-109.952 0-170.666667-60.714667-170.666667-170.666667s60.714667-170.666667 170.666667-170.666667 170.666667 60.714667 170.666667 170.666667-60.714667 170.666667-170.666667 170.666667z m0-85.333334c62.848 0 85.333333-22.485333 85.333333-85.333333 0-62.848-22.485333-85.333333-85.333333-85.333333-62.848 0-85.333333 22.485333-85.333333 85.333333 0 62.848 22.485333 85.333333 85.333333 85.333333z"  horiz-adv-x="1024" />
      
      <glyph glyph-name="Cartoon-Letter2" unicode="&#58927;" d="M885.973333 629.717333C921.045333 564.992 938.666667 482.986667 938.666667 384c0-282.752-143.914667-426.666667-426.666667-426.666667S85.333333 101.248 85.333333 384c0 94.506667 16.085333 173.525333 48.042667 236.8l11.306667-18.986667c16.64-21.077333 35.413333-42.112 56.490666-63.146666 199.936-199.978667 403.413333-199.978667 603.392 0a1302.314667 1302.314667 0 0 1 73.898667 81.834666zM512 810.666667c141.098667 0 247.637333-35.84 318.933333-106.88l-27.136-36.394667c-16.64-22.485333-36.48-45.312-59.562666-68.394667-166.656-166.613333-316.117333-166.613333-482.730667 0-23.381333 23.338667-66.986667 76.117333-83.712 98.901334l4.266667-5.674667C253.141333 770.944 363.349333 810.666667 512 810.666667z"  horiz-adv-x="1024" />
      
      <glyph glyph-name="Cartoon-Mine" unicode="&#58928;" d="M512 170.666667c133.546667 0 237.269333-59.648 291.925333-130.389334C733.696-14.933333 636.245333-42.666667 512-42.666667c-124.757333 0-222.506667 28.032-292.736 83.626667l15.018667 26.197333C287.701333 135.978667 378.112 170.666667 512 170.666667z m0 640c282.752 0 426.666667-143.914667 426.666667-426.666667 0-115.84-24.149333-208.384-72.106667-277.290667l-7.125333 9.770667c-52.309333 69.205333-129.237333 112.128-229.973334 129.962667 11.178667 8.533333 22.314667 18.346667 33.408 29.354666 98.133333 98.133333 98.133333 203.605333 0 301.738667s-203.605333 98.133333-301.738666 0-98.133333-203.605333 0-301.738667c11.136-11.093333 22.357333-20.949333 33.664-29.568-106.794667-18.901333-189.44-65.664-242.005334-139.648l2.474667 3.328C108.757333 178.474667 85.333333 269.909333 85.333333 384 85.333333 666.752 229.248 810.666667 512 810.666667z m90.496-293.504c64.810667-64.768 64.810667-116.224 0-180.992-64.768-64.810667-116.224-64.810667-180.992 0-64.810667 64.768-64.810667 116.224 0 180.992 64.768 64.810667 116.224 64.810667 180.992 0z"  horiz-adv-x="1024" />
      
      <glyph glyph-name="Cartoon-Found" unicode="&#58925;" d="M512 810.666667c282.752 0 426.666667-143.914667 426.666667-426.666667s-143.914667-426.666667-426.666667-426.666667S85.333333 101.248 85.333333 384 229.248 810.666667 512 810.666667z m161.834667-219.562667c-105.813333 23.936-201.728-5.504-282.624-86.4-83.882667-83.882667-112.426667-183.893333-83.498667-294.4a42.666667 42.666667 0 0 1 25.6-28.885333l4.864-1.578667 11.818667-2.858667c105.813333-23.978667 201.728 5.504 282.581333 86.357334 80.512 80.512 110.165333 175.957333 86.656 281.472l-2.986667 12.202666-1.493333 4.949334a42.666667 42.666667 0 0 1-24.192 24.661333l-4.949333 1.621333z m-222.293334-146.730667c54.613333 54.570667 113.834667 76.586667 181.461334 67.498667a8.106667 8.106667 0 0 0 6.826666-6.784l1.152-10.538667c5.546667-62.890667-16.853333-118.954667-68.736-170.837333l-8.234666-7.936-9.258667-8.32c-49.706667-42.666667-103.466667-59.392-163.925333-51.242667a8.106667 8.106667 0 0 0-6.186667 4.736l-0.554667 2.005334-1.194666 10.581333c-5.504 63.232 16.981333 119.168 68.693333 170.837333zM512 448a64 64 0 1 1 0-128 64 64 0 0 1 0 128z"  horiz-adv-x="1024" />
      
      <glyph glyph-name="weixin" unicode="&#58912;" d="M337.92 544.426667c-10.24-6.826667-17.066667-6.826667-20.48-20.48-6.826667-23.893333 17.066667-44.373333 37.546667-37.546667 13.653333 3.413333 30.72 23.893333 20.48 40.96-6.826667 13.653333-17.066667 17.066667-37.546667 17.066667zM566.613333 390.826667l-10.24-3.413334c-6.826667-3.413333-20.48-20.48-10.24-30.72 3.413333-10.24 17.066667-20.48 34.133334-13.653333 6.826667 3.413333 10.24 10.24 13.653333 13.653333 3.413333 20.48-6.826667 34.133333-27.306667 34.133334zM512 486.4c34.133333 10.24 27.306667 58.026667-17.066667 58.026667-10.24-6.826667-20.48-6.826667-23.893333-20.48-6.826667-20.48 17.066667-44.373333 40.96-37.546667zM512 896C228.693333 896 0 667.306667 0 384s228.693333-512 512-512 512 228.693333 512 512S795.306667 896 512 896z m-136.533333-624.64c-3.413333 0-20.48 6.826667-27.306667 6.826667-6.826667-3.413333-13.653333-10.24-20.48-13.653334-20.48-6.826667-37.546667-17.066667-58.026667-27.306666v3.413333c6.826667 6.826667 6.826667 17.066667 10.24 27.306667 3.413333 10.24 10.24 23.893333 13.653334 37.546666-37.546667 20.48-68.266667 61.44-81.92 105.813334-10.24 27.306667-6.826667 71.68 3.413333 95.573333 23.893333 54.613333 64.853333 92.16 119.466667 112.64 17.066667 6.826667 34.133333 10.24 54.613333 13.653333 20.48 3.413333 58.026667 3.413333 75.093333 0 10.24-3.413333 20.48-3.413333 30.72-3.413333 51.2-17.066667 88.746667-37.546667 119.466667-78.506667 13.653333-17.066667 30.72-40.96 30.72-71.68-27.306667 3.413333-61.44-3.413333-81.92-10.24-61.44-23.893333-105.813333-58.026667-126.293333-122.88-3.413333-13.653333-6.826667-40.96-3.413334-58.026666 0-6.826667 3.413333-13.653333 3.413334-20.48-20.48 0-44.373333 0-61.44 3.413333z m440.32 3.413333c-6.826667-20.48-23.893333-51.2-37.546667-61.44-6.826667-3.413333-27.306667-20.48-30.72-27.306666 6.826667-6.826667 6.826667-20.48 10.24-27.306667 3.413333-6.826667 6.826667-13.653333 6.826667-23.893333-10.24 10.24-34.133333 17.066667-44.373334 23.893333-6.826667 3.413333-13.653333 10.24-20.48 10.24-3.413333 0-10.24-3.413333-13.653333-3.413333-10.24-3.413333-23.893333-3.413333-34.133333-3.413334-10.24-3.413333-30.72 0-37.546667 3.413334h-13.653333c-23.893333 6.826667-44.373333 10.24-64.853334 20.48-30.72 17.066667-58.026667 44.373333-71.68 78.506666-27.306667 64.853333 3.413333 133.12 44.373334 163.84 20.48 13.653333 44.373333 27.306667 71.68 37.546667 10.24 3.413333 17.066667 3.413333 27.306666 6.826667 6.826667 0 13.653333 0 17.066667 3.413333 92.16 0 150.186667-27.306667 184.32-85.333333 6.826667-34.133333 20.48-78.506667 6.826667-116.053334zM696.32 390.826667c-6.826667-3.413333-13.653333-3.413333-17.066667-10.24-6.826667-10.24-3.413333-30.72 3.413334-37.546667 20.48-13.653333 40.96 3.413333 40.96 27.306667-6.826667 10.24-6.826667 20.48-27.306667 20.48z"  horiz-adv-x="1024" />
      
      <glyph glyph-name="mima" unicode="&#58918;" d="M508.988235 640c-66.258824 0-120.470588-54.211765-120.470588-120.470588v-66.258824h240.941177v66.258824c0 66.258824-54.211765 120.470588-120.470589 120.470588z m3.011765-249.976471c-39.152941 0-69.270588-30.117647-69.270588-69.270588 0-27.105882 15.058824-48.188235 36.141176-60.235294v-111.435294c0-18.070588 15.058824-33.129412 33.129412-33.129412 18.070588 0 33.129412 15.058824 33.129412 33.129412V263.529412c21.082353 12.047059 36.141176 33.129412 36.141176 60.235294 0 36.141176-30.117647 66.258824-69.270588 66.258823zM512 889.976471C231.905882 889.976471 6.023529 664.094118 6.023529 384S231.905882-121.97647099999995 512-121.97647099999995 1017.976471 103.90588200000002 1017.976471 384 792.094118 889.976471 512 889.976471z m274.070588-761.976471c0-36.141176-27.105882-63.247059-63.247059-63.247059H301.176471c-36.141176 0-63.247059 27.105882-63.247059 63.247059v265.035294c0 36.141176 27.105882 63.247059 63.247059 63.247059h24.094117v66.258823c0 102.4 81.317647 183.717647 183.717647 183.717648S692.705882 621.929412 692.705882 519.529412v-66.258824h30.117647c36.141176 0 63.247059-27.105882 63.247059-63.247059v-262.023529z"  horiz-adv-x="1024" />
      
      <glyph glyph-name="more" unicode="&#58899;" d="M164.197 483.523c-46.787 0-84.717-37.075-84.717-82.812 0-45.734 37.929-82.807 84.717-82.807 46.786 0 84.716 37.073 84.716 82.807 0 45.737-37.929 82.812-84.716 82.812zM526.683 483.523c-46.785 0-84.714-37.075-84.714-82.812 0-45.734 37.929-82.807 84.716-82.807 46.787 0 84.717 37.073 84.717 82.807 0 45.737-37.929 82.812-84.717 82.812zM889.173 483.523c-46.787 0-84.718-37.075-84.718-82.812 0-45.734 37.929-82.807 84.718-82.807 46.786 0 84.716 37.073 84.716 82.807 0 45.737-37.93 82.812-84.716 82.812z"  horiz-adv-x="1024" />
      
      <glyph glyph-name="nan" unicode="&#58940;" d="M1012 810.4c0.1 11-3.9 21.8-11.1 30.2-7.7 8.9-18.8 14.5-30.5 15.5h-0.5l-263 19c-25 1.8-46.7-17-48.6-42-1.8-25 17-46.7 42-48.6L864 772.6 669.5 579c-69.8 63-162.3 101.3-263.7 101.3C188.3 680.3 12 504 12 286.5s176.3-393.8 393.8-393.8S799.6 69 799.6 286.5c0 83.3-25.9 160.6-70 224.2l183.2 182.5L902.5 546c-1.8-25 17.1-46.7 42.1-48.5 1.1-0.1 2.2-0.1 3.2-0.1 23.6 0 43.6 18.3 45.2 42.2l18.8 268.1c0.2 0.9 0.2 1.8 0.2 2.7 0 0.4 0-0.1 0 0zM685 168.6c-15.3-36.1-37.1-68.5-65-96.3-27.9-27.9-60.3-49.7-96.3-65-37.3-15.8-77-23.8-117.9-23.8-40.9 0-80.6 8-117.9 23.8-36.1 15.3-68.5 37.1-96.3 65-27.9 27.9-49.7 60.3-65 96.3-15.8 37.3-23.8 77-23.8 117.9 0 40.9 8 80.6 23.8 117.9 15.3 36.1 37.1 68.5 65 96.4 27.9 27.9 60.3 49.7 96.3 65 37.3 15.8 77 23.8 117.9 23.8 41 0 80.6-8 117.9-23.8 36.1-15.3 68.5-37.1 96.3-65 27.9-27.9 49.7-60.3 65-96.4 15.8-37.3 23.8-77 23.8-117.9 0-40.9-8-80.6-23.8-117.9z m0 0"  horiz-adv-x="1024" />
      
      <glyph glyph-name="yuehoujifen" unicode="&#58964;" d="M510.8 826.2C268.8 826.2 72.6 630 72.6 388s196.2-438.2 438.2-438.2S949 146 949 388 752.8 826.2 510.8 826.2z m96.1-714.7c57.5 275.5-90.8 333-90.8 333s-21.2-124.1-54.5-145.3c21.2 27.2 9.1 75.7-12.1 66.6-15.1-39.4-112-142.3-54.5-254.3-275.5 166.5-45.4 329.9-66.6 405.6 21.2-21.2 33.3-87.8 33.3-87.8s102.9 115 109 254.3C597.8 617 612.9 486.8 612.9 486.8s27.2-3 24.2 84.8c281.6-281.5 9.1-438.9-30.2-460.1z"  horiz-adv-x="1024" />
      
      <glyph glyph-name="huo" unicode="&#58913;" d="M323.06382969 534.9219862499999s-236.59574438-94.75177312-110.6382975-411.91489406 513.4751775-278.58156 606.52482281 49.36170187c62.4113475 220.14184406-53.90070937 385.81560281-64.68085125 393.19149 0 0 30.07092188-154.32624094-83.97163125-175.31914968 0 0 86.80851094 160.56737625-49.36170188 293.90070937 0 0 13.61702156-119.7163125-30.63829875-137.30496469 0 0-20.42553188 160.56737625-217.30496437 309.21985875 0 0 81.7021275-177.5886525 30.63829781-324.53900718S313.98581563 343.14893625 311.14893594 317.61702094c0 0-44.25531937 108.93617063 11.91489375 217.30496531zM433.45248219 308.67517687s-95.31914906-38.58156-44.82269532-166.80851062 207.09219844-112.90780125 244.53900751 19.85815688c24.96453937 89.07801375-21.56028375 156.59574469-26.09929126 159.43262343 0 0 11.91489375-62.4113475-34.0425525-70.92198562 0 0 35.17730531 65.24822719-19.85815593 119.14893656 0 0 5.67375844-48.22695-12.48226969-55.60283719 0 0-7.94326219 65.24822719-87.94326281 125.39007094 0 0 32.90780156-72.0567375 12.48226968-131.63120531-20.42553188-59.57446781-35.74468125-76.02836906-36.87943218-86.80851094 0 0-17.58865219 44.25531937 5.1063825 87.94326188z"  horiz-adv-x="1024" />
      
      <glyph glyph-name="morentouxiang" unicode="&#58885;" d="M512 384m-512 0a512 512 0 1 1 1024 0 512 512 0 1 1-1024 0ZM512 301.1584c117.824 0 213.3376 94.9504 213.3376 212.096 0 117.1328-95.5136 212.0832-213.3376 212.0832-117.824 0-213.3376-94.9504-213.3376-212.096 0-117.1328 95.5136-212.0832 213.3376-212.0832z m0-90.624c-212.0704 0-384-78.4768-384-165.248 53.0944-60.7232 186.9312-173.0048 384-173.0048s324.7104 107.776 384 173.0048c0 86.7712-171.9296 165.248-384 165.248z"  horiz-adv-x="1024" />
      
      <glyph glyph-name="shuru" unicode="&#59239;" d="M865.984 657.024c20.032-19.968 30.016-43.968 30.016-71.936 0-27.968-9.984-51.968-30.016-72L372.736 19.84l-167.936-19.52a67.264 67.264 0 0 0-56.192 20.288 67.264 67.264 0 0 0-20.288 56.192l19.52 167.936 493.248 493.248A98.176 98.176 0 0 0 713.088 768c27.968 0 51.968-9.984 71.936-30.016l80.96-80.96zM339.84 88.832l352.32 352.32-122.944 122.88-352.32-352.256-16.512-139.52 139.456 16.576z m475.264 475.264a28.8 28.8 0 0 1 0 41.984L734.08 687.04a28.8 28.8 0 0 1-41.984 0L620.096 615.04l122.944-122.88 72 71.936z"  horiz-adv-x="1024" />
      
      <glyph glyph-name="arrow-bottom" unicode="&#58889;" d="M560.44430222 101.02328890000001c-13.66698667-13.66698667-32.21617778-26.35889778-49.78801777-22.45290668-17.57184-2.92864-34.16746667 10.73834667-47.83559112 22.45290668L40.10666667 525.68746667c-21.47669333 21.47783111-21.47669333 56.62264889 0 78.10048s56.62264889 21.47669333 78.09934222 0L511.63249778 199.62311110999997 906.03406222 603.78794667c21.47783111 21.47669333 56.62151111 21.47669333 78.09934223 0s21.47669333-56.62264889 0-78.09934222l-423.68910223-424.66417778z"  horiz-adv-x="1024" />
      
      <glyph glyph-name="liwucopy" unicode="&#58988;" d="M554.23944 448.345067V704.147886h-85.267606v-255.802819H42.633803v10.722402a127.901409 127.901409 0 0 0-42.633803 95.073381v42.633803a127.901409 127.901409 0 0 0 127.901409 127.901409h13.855986l34.320212 87.612466a127.901409 127.901409 0 0 0 191.852114 59.474155l143.675916-95.926057 145.807607 98.057747a127.901409 127.901409 0 0 0 190.146762-57.129296l39.436268-92.089015H895.309865a127.901409 127.901409 0 0 0 127.90141-127.901409v-42.633803a127.901409 127.901409 0 0 0-42.633803-95.073381V448.345067H554.23944z m-85.267606-85.267606v-490.288736h85.267606V363.077461h426.338032v-306.259925a184.817536 184.817536 0 0 0-184.817537-184.817536H227.45134A184.817536 184.817536 0 0 0 42.633803 56.817536V363.077461h426.338031zM704.736765 781.741408L588.559652 704.147886h205.7081l-25.153944 58.621479a42.633803 42.633803 0 0 1-16.414014 19.61155A44.339155 44.339155 0 0 1 728.824864 789.415492a42.633803 42.633803 0 0 1-24.088099-7.674084zM255.802819 759.998168L234.485917 704.147886h200.165706L319.753523 780.249225a42.633803 42.633803 0 0 1-23.235422 7.247746 44.552324 44.552324 0 0 1-24.301268-7.247746 42.633803 42.633803 0 0 1-16.414014-20.251057z"  horiz-adv-x="1024" />
      
      <glyph glyph-name="mima1" unicode="&#59259;" d="M786.672941 467.546353c40.237176 0 72.884706-32.707765 72.884706-72.944941v-340.329412a72.884706 72.884706 0 0 0-72.884706-73.005176H251.783529a72.884706 72.884706 0 0 0-72.884705 72.944941v340.329411c0 40.357647 32.587294 73.005176 72.884705 73.005177h534.889412m0 72.884706H251.783529A145.889882 145.889882 0 0 1 105.893647 394.601412v-340.329412a145.889882 145.889882 0 0 1 145.889882-145.889882h534.829177a145.889882 145.889882 0 0 1 145.889882 145.829647v340.329411a145.889882 145.889882 0 0 1-145.889882 145.889883z m-267.444706 267.444706a170.164706 170.164706 0 0 0 170.164706-170.164706v-97.28h-340.329412V637.711059A170.164706 170.164706 0 0 0 519.228235 807.875765m0 72.884706a243.109647 243.109647 0 0 1-243.109647-243.049412v-170.164706h486.27953V637.590588A243.109647 243.109647 0 0 1 519.228235 880.880941z m0-765.771295a36.442353 36.442353 0 0 0-36.442353 36.442353V297.321412a36.442353 36.442353 0 0 0 72.884706 0v-145.889883c0-20.118588-16.263529-36.382118-36.442353-36.382117v-0.060236z"  horiz-adv-x="1024" />
      
      <glyph glyph-name="call-yellow" unicode="&#58880;" d="M884.875894 472.856747L646.970506 472.856747c92.185562 340.464205-63.516616 357.853247-63.516616 357.853247-65.993017 0-52.312436-52.182476-57.3031-60.881602 0-166.502152-176.849824-296.971645-176.849824-296.971645l0-472.171899c0-46.607504 63.516616-63.393819 88.433098-63.393819l357.452111 0c33.641191 0 61.036122 88.224344 61.036122 88.224344 88.434122 300.70569 88.434122 390.177444 88.434122 390.177444C944.657442 477.820805 884.875894 472.856747 884.875894 472.856747L884.875894 472.856747 884.875894 472.856747zM884.875894 472.856747M251.671415 472.700181L109.214912 472.700181c-29.420053 0-29.873378-28.89612-29.873378-28.89612l29.420053-476.202703c0-30.309306 30.361495-30.309306 30.361495-30.309306L262.420223-62.70794799999999c25.686009 0 25.458835 20.049638 25.458835 20.049638L287.879058 436.588729C287.879058 473.162716 251.671415 472.700181 251.671415 472.700181L251.671415 472.700181 251.671415 472.700181zM251.671415 472.700181"  horiz-adv-x="1024" />
      
      <glyph glyph-name="liaotian" unicode="&#58962;" d="M512.000948 896C793.600427 896 1024 665.600427 1024 384.000948S793.600427-127.998104 512.000948-127.998104H209.466397A208.592206 208.592206 0 0 0 0.001896 81.466397V384.000948C0.001896 665.600427 230.40147 896 512.000948 896z m22.755514-586.409581H329.956841c-25.031065 0-45.511027-21.617738-45.511027-48.127911 0-26.472247 20.479962-48.127911 45.511027-48.12791h204.799621c25.031065 0 45.511027 21.655664 45.511026 48.165836 0 26.434321-20.479962 48.089985-45.511026 48.089985z m159.288593 216.632488H329.956841c-25.031065 0-45.511027-21.655664-45.511027-48.165837 0-26.434321 20.479962-48.089985 45.511027-48.089985h364.088214c25.031065 0 45.511027 21.617738 45.511027 48.127911 0 26.472247-20.479962 48.127911-45.511027 48.127911z"  horiz-adv-x="1024" />
      
      <glyph glyph-name="chakan" unicode="&#58881;" d="M512 658.2848C237.7152 658.2848 128 384 128 384s109.7152-274.2912 384-274.2912S896 384 896 384 786.2848 658.2848 512 658.2848L512 658.2848zM512 219.42399999999998c-90.8544 0-164.5696 73.664-164.5696 164.576 0 90.9056 73.7152 164.5696 164.5696 164.5696S676.5696 474.912 676.5696 384C676.5696 293.08799999999997 602.8544 219.42399999999998 512 219.42399999999998L512 219.42399999999998zM512 219.42399999999998M594.2784 384c0-45.4272-36.8512-82.2912-82.2784-82.2912S429.7216 338.57280000000003 429.7216 384c0 45.4272 36.8512 82.2784 82.2784 82.2784C557.4336 466.2912 594.2784 429.4336 594.2784 384L594.2784 384zM594.2784 384"  horiz-adv-x="1024" />
      
      <glyph glyph-name="dongtai" unicode="&#58882;" d="M614.02845 895.296484a151.44788 151.44788 0 0 1-63.95603-18.163513l-52.635813-26.030104a484.083193 484.083193 0 0 1-214.380613-218.409843 146.267441 146.267441 0 0 1 86.404597-187.455125 116.719755 116.719755 0 0 1 40.739991-7.163075 182.85029 182.85029 0 0 1 159.250515 128.679532l81.288115 219.944788c25.582412 68.368996 8.570108 108.725251-36.838674 108.725252z m-24.495159-109.812504l-70.799326-191.868091a121.516457 121.516457 0 0 0-100.922616-85.70108 60.502405 60.502405 0 0 0-21.681094 3.837361 86.916245 86.916245 0 0 0-51.164824 111.347449A387.573543 387.573543 0 0 0 511.698802 791.240022l45.792517 22.704391a91.776903 91.776903 0 0 0 37.798014 11.703954 4.157142 4.157142 0 0 0 1.534945 0 85.445256 85.445256 0 0 0-7.227031-40.164387z m415.714196-440.46518l-26.030104 52.635812a485.042533 485.042533 0 0 1-218.409843 214.380614 144.860408 144.860408 0 0 1-50.141528 9.081756A146.267441 146.267441 0 0 1 573.416371 525.630629a168.20436 168.20436 0 0 1 121.516457-200.246331l220.136656-81.096246a168.588096 168.588096 0 0 1 56.153395-11.703954c52.443945 0 68.688776 43.042408 34.216476 112.434702z m-53.978889-44.769222a33.896696 33.896696 0 0 0-5.244395-0.31978 100.922616 100.922616 0 0 0-34.280432 7.546812L722.753702 377.25263900000004a106.614702 106.614702 0 0 0-80.648555 120.685029 86.148773 86.148773 0 0 0 80.648555 55.769658 83.462619 83.462619 0 0 0 29.163949-5.244394 382.009369 382.009369 0 0 0 165.582163-164.558866l22.38461-45.089001a84.485916 84.485916 0 0 0 11.576042-38.373618z m-622.292175 141.662607L108.775811 523.0084320000001a169.675348 169.675348 0 0 1-56.153394 11.703953c-52.635813 0-68.880645-42.85054-34.4723-112.434701l26.09406-52.635813a487.920555 487.920555 0 0 1 218.537755-214.380613 142.941728 142.941728 0 0 1 50.013616-8.953844 146.267441 146.267441 0 0 1 137.249641 95.486353 168.012491 168.012491 0 0 1-121.132722 200.24633zM383.786741 268.527387a87.172069 87.172069 0 0 0-81.479982-56.665042 84.933608 84.933608 0 0 0-29.547686 5.244394A387.957279 387.957279 0 0 0 104.874494 383.648242l-22.704391 45.792517a87.875586 87.875586 0 0 0-11.703954 39.013179 34.408344 34.408344 0 0 0 5.244395 0.31978 106.103054 106.103054 0 0 0 34.79208-7.674724l191.868091-70.351633a143.325464 143.325464 0 0 0 72.206358-56.984823A76.747236 76.747236 0 0 0 383.786741 268.527387z m269.958404 53.65911a113.330086 113.330086 0 0 1-40.739991 7.354943 182.786334 182.786334 0 0 1-159.250516-128.679533L372.594436-19.274749000000043c-25.198676-68.368996-8.37824-108.725251 37.094498-108.725251a151.76766 151.76766 0 0 1 63.95603 18.163513l52.635813 26.030104a484.211105 484.211105 0 0 1 214.316657 218.409843 146.715133 146.715133 0 0 1-86.724377 187.455125z m25.198676-177.286116A389.364312 389.364312 0 0 0 511.698802-23.943538999999987l-46.176254-23.088127a91.393167 91.393167 0 0 0-37.734058-11.703953 4.285054 4.285054 0 0 0-1.598901 0 86.276685 86.276685 0 0 0 7.482856 40.228343l70.991194 192.699519A121.516457 121.516457 0 0 0 605.906034 260.21310300000005a59.990756 59.990756 0 0 0 21.681095-3.837361 87.044157 87.044157 0 0 0 51.612516-111.731185z"  horiz-adv-x="1024" />
      
      <glyph glyph-name="tuisong" unicode="&#58896;" d="M1007.965981 889.662294a35.646797 35.646797 0 0 0 15.487477-36.478769l-146.299062-877.730377a36.094782 36.094782 0 0 0-18.239384-25.727131 35.454803 35.454803 0 0 0-17.7914-4.479849 38.846689 38.846689 0 0 0-13.695538 2.815905l-258.807265 105.660434-138.299332-168.506313a33.534868 33.534868 0 0 0-27.967056-13.183555 31.550935 31.550935 0 0 0-12.607575 2.303922 35.582799 35.582799 0 0 0-17.407412 13.439547 35.646797 35.646797 0 0 0-6.591778 20.863295v199.41727l493.679338 605.099578-610.795385-528.558161L22.911227 277.202964c-14.079525 5.311821-21.759266 15.743469-22.847229 31.358942a33.918855 33.918855 0 0 0 18.303382 33.726862L969.119292 890.878253A35.134814 35.134814 0 0 0 987.486672 895.99808a35.198812 35.198812 0 0 0 20.607305-6.335786z"  horiz-adv-x="1024" />
      
      <glyph glyph-name="tongzhi" unicode="&#58920;" d="M597.1 711.3c0 39-32.7 70.8-73.1 70.8-40.3 0-73.1-31.7-73.1-70.8 0-4 0.4-7.9 1-11.7-100.9-34-183.7-138.7-183.7-262.5v-97.4s0-140.3-35.5-141.6c-21.2 0-37.5-15.8-37.5-35.4 0-19.6 16.4-35.4 36.5-35.4h584.6c20.3 0 36.5 15.8 36.5 35.4 0 19.7-16.4 35.4-36.5 35.4-36.5 0-36.5 140.6-36.5 140.6v98.5c0 123.9-77.4 228.6-183.7 262.6 0.6 3.7 1 7.6 1 11.5z m36.5-619.2c-0.1-58.7-48.7-106.2-109.6-106.2-60.4 0-109.5 47.4-109.6 106.2"  horiz-adv-x="1024" />
      
      <glyph glyph-name="shenjia" unicode="&#59006;" d="M689.91 712.6H334.09L103.18 460.69 425.12 103A116.89 116.89 0 0 1 512 64.28 116.89 116.89 0 0 1 598.88 103l321.94 357.69zM512 136.31a44.86 44.86 0 0 0-33.34 14.85l-278.19 309.1 165.28 180.3h292.5l165.28-180.3-278.19-309.1A44.86 44.86 0 0 0 512 136.31zM636.59 488.93L512 345.84 387.38 488.93 336.45 438 512 243.98 687.52 438l-50.93 50.93z"  horiz-adv-x="1024" />
      
      <glyph glyph-name="huiyuan" unicode="&#59067;" d="M486.549333 713.578667a32.213333 32.213333 0 0 0 49.834667-0.085334l157.781333-189.333333 15.402667-18.453333 19.52 7.978666 100.458667 41.152c25.002667 10.24 50.666667-13.184 44.074666-40.192l-99.264-405.909333h45.952c17.216 0 31.36-13.205333 32.896-30.037333l0.128-2.986667c0-18.261333-14.784-33.045333-33.024-33.045333H203.690667a33.024 33.024 0 1 0 0 66.069333h45.077333l-98.389333 404.266667c-6.336 25.984 17.216 48.64 41.301333 41.152l2.581333-0.917334 98.837334-39.744 19.328-7.765333 15.253333 18.24z m24.832-74.602667l-133.909333-159.786667-30.442667-36.394666a32.213333 32.213333 0 0 0-36.821333-9.472l-40.96 16.448-39.338667 15.829333 86.869334-356.864H706.346667l87.530666 357.994667-40.597333-16.64-41.28-16.853334a32.213333 32.213333 0 0 0-37.013333 9.450667l-30.72 36.778667-132.906667 159.509333zM586.666667 218.837333c17.664 0 32-14.784 32-33.024 0-18.24-14.336-33.045333-32-33.045333h-170.666667c-17.664 0-32 14.805333-32 33.045333s14.336 33.024 32 33.024z"  horiz-adv-x="1024" />
      
      <glyph glyph-name="renwu1" unicode="&#58886;" d="M840.454 833.558h-638.605c-76.445 0-139.409-63.68-139.409-141.007v-614.048c0-77.326 62.963-141.007 139.408-141.007h638.605c76.454 0 139.408 63.68 139.408 141.007v614.048c0 77.326-58.454 141.007-139.408 141.007zM912.409 73.95000000000005c0-40.931-31.473-72.772-71.954-72.772h-638.605c-40.473 0-71.954 31.84-71.954 72.772v618.603c0 40.931 31.481 72.772 71.954 72.772h638.605c40.481 0 71.954-31.84 71.954-72.772v-618.603zM399.73 610.6800000000001l-98.936-100.065-44.973 45.477c-13.5 13.647-35.981 13.647-44.973 0-13.5-13.638-13.5-36.386 0-45.477l71.954-72.781c4.5-4.546 13.492-9.092 26.981-9.092 13.5 0 13.5 4.546 26.981 9.092l121.426 122.813c13.5 13.647 13.5 36.386 0 45.487-26.981 13.638-44.973 13.638-58.463 4.546zM813.473 556.092h-310.308c-22.481 0-31.481-13.638-31.481-31.84 0-22.739 13.5-31.84 31.481-31.84h310.316c22.481 0 31.473 13.647 31.473 31.84 0 18.202-13.5 31.84-31.481 31.84zM318.775 351.41600000000005c-58.463 0-103.436-45.487-103.436-104.62 0-59.125 44.973-104.611 103.436-104.611 58.473 0 103.436 45.487 103.436 104.611 0 63.68-49.463 104.62-103.436 104.62zM318.775 214.957c-22.481 0-35.973 13.647-35.973 36.386 0 22.747 13.492 36.395 35.973 36.395 22.492 0 35.981-13.647 35.981-36.395 0-22.739-17.992-36.386-35.981-36.386zM813.473 283.192h-310.308c-22.481 0-31.481-13.647-31.481-31.849 0-18.184 13.5-31.84 31.481-31.84h310.316c22.481 0 31.473 13.647 31.473 31.84 0 18.202-13.5 31.84-31.481 31.84z"  horiz-adv-x="1044" />
      
      <glyph glyph-name="zuanshi" unicode="&#59299;" d="M325.2992 469.57056l383.80032 1.69984-184.6016-464.1024-199.19872 462.40256zM369.30048 617.92768l292.39808-2.60096 51.70176-112.9984-379.49952 2.60096 35.39968 112.9984zM295.19872 508.32896L64 604.928l124.20096 92.29824 148.39808-76.6976-41.40032-112.19968zM64 568.77056l219.10016-97.50016 235.49952-460.60032L64 568.77056z m690.69824-96.59904L960 578.26816l-432.1024-565.00224 226.80064 458.9056zM750.40256 509.23008l-57.79968 118.99904 131.99872 73.40032 113.80224-95.80032-188.00128-96.59904zM364.9024 655.63136l-50.00192 12.9024-93.99808 52.69504L331.29984 760.832h360.6016l109.50144-45.70112-105.20064-50.89792-35.39968-8.6016H364.9024z"  horiz-adv-x="1024" />
      
      <glyph glyph-name="yinsi" unicode="&#58891;" d="M1006.91 893.52q-10.45 4.65-20.89 0.58-10.45-4.06-13.93-13.35Q940.75 804.14 892 742.62q-48.75-61.51-109.69-104.46-60.94-42.95-131.74-66.16-70.8-23.21-146.25-23.21-87.05 0-167.72 30.75t-145.67 87.63q-41.78 35.98-77.76 83.57Q77.19 798.33 50.49 852.88q-3.48 10.45-13.93 14.51-10.44 4.06-20.89-0.58Q5.22 863.33 1.74 852.88q-3.48-10.45 0-20.89 23.22-54.56 56.29-99.82 33.08-45.27 73.71-83.56L23.79 540.66q-8.12-8.12-8.12-19.15t8.12-19.15q4.65-4.64 9.87-6.38 5.22-1.75 8.71-1.75 6.96 0 11.02 1.75t8.71 6.38l110.26 110.26q42.95-32.49 89.38-56.28 46.43-23.8 97.5-40.05l-40.63-124.2q-4.64-10.44 0.59-20.89 5.22-10.45 15.66-15.09 1.16 0 3.49-1.16 2.32-1.16 4.64-1.16 8.12 0 15.09 5.23 6.96 5.23 9.28 13.35l42.95 130q22.05-4.64 45.84-6.38 23.8-1.75 48.17-1.75 34.82 0 69.06 4.64 34.25 4.64 69.07 13.93 0-1.16 0.58-3.48 0.58-2.32 1.74-4.64l76.6-132.32q3.49-5.8 9.29-9.28 5.8-3.49 13.93-3.49h7.54q2.9 0 6.39 2.32 10.44 5.81 12.77 16.84 2.32 11.02-2.33 21.48l-75.44 132.32q38.3 13.92 74.86 35.4 36.56 21.47 71.39 48.17l89.37-113.75q3.48-4.64 9.28-7.54 5.81-2.91 11.61-2.91 4.64 0 8.7 1.74 4.07 1.74 7.55 2.9 8.13 6.97 9.87 18.57 1.74 11.61-4.06 19.74l-91.7 113.75q44.11 41.78 80.09 95.75 35.98 53.97 62.68 114.33 2.32 10.45-1.75 20.89-4.06 10.45-14.5 13.93z"  horiz-adv-x="1024" />
      
      <glyph glyph-name="lianxikefu" unicode="&#58921;" d="M857.38 525.29c-2.07 0-3.81-1-5.82-1.17C822.38 685.2 681.38 807.88 512 807.88S201.62 685.2 172.44 524.12c-2 0.2-3.76 1.17-5.82 1.17-86.56 0-157-70.4-157-157s70.43-157 157-157c30.34 0 54.47 21.94 60.33 50.56a31.32 31.32 0 0 1 2.47 12.23V462.5c0 155.83 126.76 282.59 282.59 282.59S794.59 618.32 794.59 462.5v-258.37a94.55 94.55 0 0 0-61.14-88.19L613.71 71c-10.79 8.73-24 14.68-38.91 14.68H449.2a62.8 62.8 0 0 1 0-125.59h125.6c30.85 0 55.33 22.66 60.62 52l120.07 45a157.66 157.66 0 0 1 101.89 147v7.18c86.56 0 157 70.4 157 157s-70.44 157.02-157 157.02z m-785-157a94.2 94.2 0 0 0 94.2 94.2v-188.38a94.2 94.2 0 0 0-94.16 94.19z m785-94.2V462.5a94.2 94.2 0 1 0 0-188.39z"  horiz-adv-x="1024" />
      
      <glyph glyph-name="tupian" unicode="&#58887;" d="M876.613818 34.90909099999999a11.636364 11.636364 0 0 1 11.636364 11.636364v674.90909a11.636364 11.636364 0 0 1-11.636364 11.636364h-721.454545a11.636364 11.636364 0 0 1-11.636364-11.636364v-674.90909a11.636364 11.636364 0 0 1 11.636364-11.636364h721.454545z m0-69.818182h-721.454545a81.454545 81.454545 0 0 0-81.454546 81.454546v674.90909a81.454545 81.454545 0 0 0 81.454546 81.454546h721.454545a81.454545 81.454545 0 0 0 81.454546-81.454546v-674.90909a81.454545 81.454545 0 0 0-81.454546-81.454546zM129.256727 195.793455l-47.197091 51.432727 182.574546 167.493818a81.454545 81.454545 0 0 0 113.314909-3.072l158.673454-162.327273a11.636364 11.636364 0 0 1 15.965091-0.651636l94.138182 81.803636a81.454545 81.454545 0 0 0 107.822546-0.861091l191.627636-171.962181-46.615273-51.968-191.650909 171.985454a11.636364 11.636364 0 0 1-15.383273 0.116364l-94.138181-81.803637a81.454545 81.454545 0 0 0-111.685819 4.538182l-158.696727 162.327273a11.636364 11.636364 0 0 1-16.174545 0.442182l-182.574546-167.493818zM686.545455 558.545455m-58.181819 0a58.181818 58.181818 0 1 1 116.363637 0 58.181818 58.181818 0 1 1-116.363637 0Z"  horiz-adv-x="1024" />
      
      <glyph glyph-name="lajixiang" unicode="&#59014;" d="M834.97358-102.8608H168.283881c-36.461154 0-66.129545 31.541395-66.129545 70.325075V512.808258c0 20.503156 16.85704 37.110462 37.634903 37.110462 20.777863 0 37.634903-16.607306 37.634904-37.110462v-541.423161h648.334255l0.049947 541.423161c0 20.503156 16.85704 37.110462 37.634903 37.110462 20.777863 0 37.634903-16.607306 37.634904-37.110462v-545.343983c0-38.783679-29.643417-70.325075-66.104572-70.325075z m-157.507189 575.187188v-376.523847c0-20.528129-16.85704-37.135435-37.634904-37.135435a37.385169 37.385169 0 0 0-37.634903 37.135435V472.326388c0 20.503156 16.85704 37.135435 37.634903 37.135435 20.777863 0 37.634903-16.63228 37.634904-37.135435z m-276.405514 0v-376.523847c0-20.528129-16.85704-37.135435-37.634903-37.135435a37.385169 37.385169 0 0 0-37.634904 37.135435V472.326388c0 20.503156 16.85704 37.135435 37.634904 37.135435 20.777863 0 37.634903-16.63228 37.634903-37.135435z m454.415859 169.244684H147.780725A37.385169 37.385169 0 0 0 110.145822 678.706507c0 20.503156 16.832067 37.135435 37.634903 37.135436h707.696011c20.777863 0 37.634903-16.63228 37.634903-37.135436 0-20.503156-16.85704-37.135435-37.634903-37.135435zM552.974027 787.265847h-102.715566a37.385169 37.385169 0 0 0-37.634903 37.135435v10.014331c0 20.503156 16.85704 37.135435 37.634903 37.135435h102.715566c20.777863 0 37.634903-16.63228 37.634903-37.135435v-10.014331c0-20.503156-16.85704-37.135435-37.634903-37.135435z"  horiz-adv-x="1024" />
      
      <glyph glyph-name="fenxiang" unicode="&#58888;" d="M512 896a43.52 43.52 0 1 0 0-87.04 425.0112 425.0112 0 1 1 425.0112-424.96A43.52 43.52 0 1 0 1024 384c0-282.7264-229.2736-512-512-512S0 101.2736 0 384 229.2736 896 512 896z m263.5264-217.7024a42.8032 42.8032 0 0 0 60.8256 60.1088l74.9568-74.9568a57.8048 57.8048 0 0 0 0-81.8688l-74.9568-74.9568a42.752 42.752 0 0 0-60.4672 60.416l12.6976 12.7488h-55.1936c-150.0672 0-201.0624-63.8976-201.0624-257.1776a42.7008 42.7008 0 0 0-42.752-42.7008 42.7008 42.7008 0 0 0-42.7008 42.7008c0 239.0016 87.1936 342.6304 286.5152 342.6304h55.1936l-13.056 13.056z"  horiz-adv-x="1024" />
      
      <glyph glyph-name="yaoqingma" unicode="&#58929;" d="M573.952 430.592l-108.544-108.544a26.112 26.112 0 0 0-36.352 0 25.6 25.6 0 0 0 0 36.352l108.544 108.544a25.6 25.6 0 0 0 36.352 0 26.112 26.112 0 0 0 0-36.352zM646.144 358.4l-108.544-108.544a25.6 25.6 0 0 0-36.352 0 26.112 26.112 0 0 0 0 36.352l108.544 108.544a26.112 26.112 0 0 0 36.352 0 25.6 25.6 0 0 0 0-36.352zM791.04 394.752l-288.768-290.816-26.624 24.064a126.464 126.464 0 0 0-28.672-43.52l18.944-18.944a51.2 51.2 0 0 1 70.656 0l291.328 291.328a51.2 51.2 0 0 1 0 70.656l-18.944 18.944a126.464 126.464 0 0 0-43.52-28.672zM283.136 321.536l289.792 291.328 26.624-26.624a126.464 126.464 0 0 0 28.672 43.52l-18.944 18.944a51.2 51.2 0 0 1-70.656 0l-291.328-291.328a51.2 51.2 0 0 1 0-70.656l18.944-18.944a120.832 120.832 0 0 0 40.96 28.16zM446.976 267.776A128 128 0 0 1 307.2 295.936l43.008-42.496A77.312 77.312 0 0 0 409.6 230.4a78.848 78.848 0 0 0 22.016-58.88l42.496-42.496a127.488 127.488 0 0 1-27.136 138.752zM351.744 253.44L307.2 295.936a120.832 120.832 0 0 1-42.496-28.16l35.84-35.84a77.824 77.824 0 0 0 51.2 21.504zM433.152 173.056a78.848 78.848 0 0 0-22.016-51.2l35.84-35.84a126.464 126.464 0 0 1 28.672 41.984zM665.6 486.4a77.824 77.824 0 0 0-22.016 58.368l-42.496 43.008A128 128 0 0 1 768 420.352l-43.008 42.496A77.824 77.824 0 0 0 665.6 486.4zM642.048 543.232a78.848 78.848 0 0 0 22.016 51.2l-35.84 35.84a126.464 126.464 0 0 1-28.672-43.52zM722.432 462.848l43.008-42.496a126.464 126.464 0 0 1 43.52 28.672L773.12 486.4a78.848 78.848 0 0 0-50.688-23.552z"  horiz-adv-x="1024" />
      
      <glyph glyph-name="shezhi" unicode="&#58890;" d="M509.70263 195.449255c-108.225977 0-191.008099 82.782122-191.008099 191.059294 0 108.225977 82.782122 191.008099 191.008099 191.008099 108.277172 0 191.059294-82.782122 191.059294-191.008099 0-108.277172-82.782122-191.059294-191.059294-191.059294z m0 318.432157A127.731227 127.731227 0 0 1 382.380963 386.508549a127.731227 127.731227 0 0 1 127.321667-127.372863 127.731227 127.731227 0 0 1 127.372863 127.372863 127.731227 127.731227 0 0 1-127.372863 127.321668zM637.075493-122.880512H382.380963c-19.09569 0-31.843216 12.69633-31.843216 31.792021v121.024697c-25.49505 12.69633-50.938906 25.443856-70.034597 38.191381l-101.877812-63.686431a33.583842 33.583842 0 0 0-44.590741 12.747525L6.661734 240.039996c-12.69633 19.09569-6.348165 38.191381 12.798721 44.539546l101.877812 63.686431V424.69993L19.40926 488.386361c-19.146885 6.348165-25.49505 25.443856-12.79872 44.539546l127.372862 222.90251c6.348165 12.69633 25.49505 19.09569 44.539546 6.348165l101.877813-63.686431c19.146885 12.747525 44.590741 31.843216 70.085791 38.242576V864.054395c0 19.09569 12.747525 31.843216 31.843216 31.843215h254.69453c19.09569 0 31.843216-12.747525 31.843216-31.843215v-120.973503c25.443856-12.747525 50.938906-25.49505 70.034596-38.191381l101.877813 63.635237a33.583842 33.583842 0 0 0 44.539546-12.696331l127.372862-222.90251c12.747525-19.09569 6.39936-38.191381-12.747525-44.539546l-101.877812-63.686431v-76.433957l101.877812-63.635236c12.79872-6.39936 19.146885-25.49505 12.79872-44.539546l-127.372862-222.90251c-6.39936-12.747525-25.49505-19.09569-44.590741-12.747525l-101.877813 63.686431c-19.09569-12.747525-44.539546-31.843216-70.034596-38.191381v-121.024697c0-19.09569-12.747525-31.792021-31.843216-31.792021zM414.224178-59.245275h191.008099v108.277172c0 12.69633 6.348165 25.443856 19.095691 31.843215a405.975402 405.975402 0 0 1 89.130287 50.938907 40.59754 40.59754 0 0 0 38.242576 0l95.478452-57.338267 95.529647 165.564244-95.529647 57.338266c-12.69633 12.69633-19.09569 25.443856-12.696331 38.191381 0 19.09569 6.348165 31.843216 6.348166 50.938906s0 31.843216-6.348166 50.938906a48.635136 48.635136 0 0 0 12.696331 31.843216l95.529647 57.338266-95.529647 165.513049-95.478452-57.338266a40.59754 40.59754 0 0 0-38.242576 0 405.975402 405.975402 0 0 1-89.079092 50.990101c-12.79872 12.69633-19.146885 25.443856-19.146886 38.19138V832.211179H414.224178v-108.225978a35.017298 35.017298 0 0 0-19.146885-31.843215 405.975402 405.975402 0 0 1-89.079092-50.938906 40.59754 40.59754 0 0 0-38.242576 0L172.225978 692.141986 76.747526 526.577742l95.478452-57.338266c12.747525-6.348165 19.09569-19.044496 12.747525-31.792021 0-19.09569-6.348165-31.843216-6.348165-50.938906s0-31.843216 6.348165-50.938906c6.348165-12.747525 0-25.49505-12.747525-31.843216l-95.478452-57.338266 95.478452-165.513049 95.529647 57.287072a40.59754 40.59754 0 0 0 38.191381 0 405.975402 405.975402 0 0 1 89.130287-50.938906 35.017298 35.017298 0 0 0 19.146885-31.843216v-114.625337z"  horiz-adv-x="1024" />
      
      <glyph glyph-name="heimingdan" unicode="&#58956;" d="M781.988571 330.093714c133.851429 0 242.468571-102.546286 242.468572-229.010285C1024.457143-25.453714 915.913143-128 781.988571-128c-133.997714 0-242.614857 102.546286-242.614857 229.083429 0 126.537143 108.617143 229.010286 242.541715 229.010285zM523.209143 896c157.769143 0 285.696-125.44 285.696-280.064 0-151.186286-122.148571-274.285714-274.944-279.917714l-10.678857-0.146286c-220.525714 0-406.162286-160.329143-435.419429-372.589714a43.812571 43.812571 0 0 0-49.444571-36.937143 43.008 43.008 0 0 0-37.595429 48.493714c27.062857 196.534857 165.741714 355.913143 349.110857 418.523429a277.650286 277.650286 0 0 0-112.274285 222.573714C237.659429 770.56 365.513143 896 523.209143 896z m397.165714-727.552l-219.282286-194.852571c24.210286-13.165714 52.662857-20.772571 83.090286-20.772572 88.064 0 159.451429 63.488 159.451429 141.750857 0 27.062857-8.484571 52.370286-23.332572 73.874286z m-149.211428 80.822857a150.893714 150.893714 0 0 1-136.411429-215.552l201.142857 200.996572a150.308571 150.308571 0 0 1-64.731428 14.555428zM525.988571 815.177143c-111.689143 0-202.166857-84.48-202.166857-188.708572 0-104.155429 90.477714-188.562286 202.093715-188.562285 111.689143 0 202.093714 84.406857 202.093714 188.635428 0 104.155429-90.404571 188.635429-202.093714 188.635429z"  horiz-adv-x="1024" />
      
      <glyph glyph-name="hao" unicode="&#58893;" d="M927.878 428.382h-377.118v365.861c0 16.8859-16.8859 39.4004-39.4004 39.4004-22.5145 0-39.4004-22.5145-39.40040001-45.029v-365.861H106.097c-22.5145 5.62863001-45.029-16.8859-45.02900001-39.4004s22.5145-39.4004 39.40040001-39.4004h365.861v-365.861c5.62863001-22.5145 22.5145-45.029 45.029-45.029s39.4004 22.5145 39.4004 39.4004v371.49h371.49000001c22.5145 0 39.4004 22.5145 39.40039999 39.4004s-11.2573 45.029-33.7718 45.029Z"  horiz-adv-x="1027" />
      
      <glyph glyph-name="yaoqing" unicode="&#58903;" d="M93.034791-128A93.619326 93.619326 0 0 0 0.000585-34.965794V504.515574a93.619326 93.619326 0 0 0 36.277489 74.31034l409.584553 298.411603a92.449085 92.449085 0 0 0 58.512079 18.723865 90.108602 90.108602 0 0 0 54.416233-17.553624l428.308418-298.996723a90.693722 90.693722 0 0 0 39.203093-76.065703v-538.311126a93.619326 93.619326 0 0 0-93.034205-93.034206z m409.584553 961.353458a29.256039 29.256039 0 0 1-18.138745-5.851208l-409.584553-298.411603a31.596523 31.596523 0 0 1-11.117295-24.575073v-539.481368a31.596523 31.596523 0 0 1 31.011402-31.011402h836.137609a32.181643 32.181643 0 0 1 31.011401 31.011402v538.311126a29.256039 29.256039 0 0 1-12.872657 24.575073L520.758088 827.50225a31.596523 31.596523 0 0 1-18.138744 5.851208zM793.424376 41.685029a36.86261 36.86261 0 0 0-25.745315 12.872657l-124.630728 162.66358H378.573736l-135.748023-160.323096a32.766764 32.766764 0 0 0-24.575073-11.702416h1.170241a32.766764 32.766764 0 0 0-22.819711 8.191691 35.692368 35.692368 0 0 0-4.680966 46.809663L324.157503 252.328513 222.931606 416.747455a70.214495 70.214495 0 0 0 0 70.214495 67.288891 67.288891 0 0 0 58.512079 35.107247h452.29837a67.874012 67.874012 0 0 0 58.512079-102.396138l-93.034205-166.759425 121.705124-152.716526a34.522127 34.522127 0 0 0 7.02145-25.160194 36.277489 36.277489 0 0 0-12.872658-22.819711 31.596523 31.596523 0 0 0-19.894107-7.021449z m-409.584553 240.484645h256.282906l95.374689 169.099908-457.564458 3.510725z"  horiz-adv-x="1026" />
      
      <glyph glyph-name="fanhui1" unicode="&#58894;" d="M674.22000122 53.21142578000001c-6.5177679 0-13.10795546 2.31742859-18.10491083 6.95228577L331.67508793 360.85007095000003c-9.99391079 9.26971435-9.99391079 24.33300019 0 33.60271454L656.11509038 695.1391449c9.99391079 9.26971435 26.21591092 9.26971435 36.20982169 0 9.99391079-9.26971435 9.99391079-24.33300019 0-33.60271454L385.98982048 377.65142822999996l306.33509159-283.88500214c9.99391079-9.26971435 9.99391079-24.33300019 0-33.60271455-4.9969554-4.63485718-11.58714294-6.95228576-18.10491085-6.95228576z"  horiz-adv-x="1024" />
      
      <glyph glyph-name="fanhuizuojiantouxiangzuoshangyibuxianxing" unicode="&#58895;" d="M676.579556 384.739556l-390.257778 390.229333a28.444444 28.444444 0 1 0 40.248889 40.22044399L736.91022199 404.849778a28.444444 28.444444 0 0 0 1e-8-40.220445L326.570667-45.71022201000005a28.444444 28.444444 0 0 0-40.220445 40.22044401L676.579556 384.739556z"  horiz-adv-x="1024" />
      
      <glyph glyph-name="left" unicode="&#58936;" d="M347.420444 383.260444l390.257778-390.229333a28.444444 28.444444 0 1 0-40.248889-40.22044399L287.08977801 363.150222a28.444444 28.444444 0 0 0-1e-8 40.220445L697.429333 813.71022201a28.444444 28.444444 0 0 0 40.220445-40.22044401L347.420444 383.260444z"  horiz-adv-x="1024" />
      
      <glyph glyph-name="dizhi" unicode="&#58947;" d="M512-109.568s-358.4 456.09-358.4 651.571C153.6 737.587 314.06 896 512 896c197.632 0 358.093-158.413 358.093-353.997 0-195.481-358.298-651.571-358.298-651.571z m-3.789 802.202a151.552 151.552 0 0 1-152.576-150.63A151.552 151.552 0 0 1 508.211 391.27a151.552 151.552 0 0 1 152.576 150.733 151.552 151.552 0 0 1-152.576 150.63z"  horiz-adv-x="1024" />
      
      <glyph glyph-name="guan-copy" unicode="&#58884;" d="M1496.92954801 863.38165781h-951.29564532C281.9585327 863.38165781 66.13333332 647.60402344 66.13333332 383.90486999999996c0-263.722935 215.82519938-479.50056937 479.52435187-479.50056937h951.29564532c263.6991525 0 479.47678781 215.77763438 479.47678687 479.50056937C1976.40633582 647.60402344 1760.62870051 863.38165781 1496.92954801 863.38165781zM1883.10801488 383.59569937000003c0-219.08338687-179.24788219-398.33126906-398.33126906-398.33126906H547.4413652c-219.08338687 0-398.33126906 179.24788219-398.33126907 398.33126907 0 219.10716938 179.24788219 398.35505156 398.33126907 398.35505156h937.33538062c219.08338687 0.0237825 398.33126906-179.24788219 398.33126906-398.35505156zM553.29236149 381.24124219m-288.95605219 0a288.95605219 288.95605219 0 1 1 577.91210437 0 288.95605219 288.95605219 0 1 1-577.91210437 0Z"  horiz-adv-x="2037" />
      
      <glyph glyph-name="tubiaoku-" unicode="&#58997;" d="M511.35 212.91a92.65 92.65 0 0 0-87 124.59l-98.66 98.66a38.63 38.63 0 1 0 54.63 54.63l98.49-98.49a92.64 92.64 0 1 0 32.5-179.39z m0 125.05a32.41 32.41 0 1 1 32.41-32.41A32.45 32.45 0 0 1 511.35 338zM387.72 771a47.75 47.75 0 1 0 0 95.49h215.72a47.75 47.75 0 0 0 0-95.49zM796.25-105.74a182.77 182.77 0 0 0-35.67 3.57c-36.8 7.35-67.35 25.09-86 50-13.25 17.66-18.32 37.12-13.9 53.39 3.82 14.1 16.5 25.42 30.14 26.9a25.57 25.57 0 0 0 2.74 0.15c15.89 0 27.42-16.68 33.61-25.65 17.1-24.75 39.69-39 62-39a58.77 58.77 0 0 1 19.91 3.58c21.44 7.74 36.7 27.16 38 48.31a52.91 52.91 0 0 1-29.21 50c-4.72 2.34-9.84 4.37-15.26 6.52-24.84 9.85-41 17.95-40.08 40.09 0.93 21.49 16.75 27 35.06 33.4 9.61 3.35 18.68 6.51 26.21 12.17a42.8 42.8 0 0 1 16.2 28.49 41.73 41.73 0 0 1-7.78 31c-8.25 10.76-20.86 16.68-35.52 16.68a53 53 0 0 1-30.35-9.55c-5.56-3.94-10.46-8.7-15.64-13.73-10-9.67-20.26-19.68-34.07-20.86-0.66-0.06-1.34-0.09-2-0.09-6.86 0-13.73 3.1-19.35 8.73a38.07 38.07 0 0 0-11.11 26.33c0 16.15 9.25 33.24 26 48.13 23 20.49 53.58 32.24 83.93 32.24 3.64 0 7.31-0.17 10.9-0.51a110.75 110.75 0 0 0 15.59-2.61c30.68-7.45 55.65-28 70.31-57.88 15.62-31.83 16.58-69.55 2.57-100.91a111.1 111.1 0 0 0-11.8-20.32 19.45 19.45 0 0 0-1.79-1.93l-0.89-0.9-8.47-8.66 10.17-6.5c1.67-1.06 3.63-2.17 4.68-2.76a40.13 40.13 0 0 0 3.48-2.08 110.53 110.53 0 0 0 20.75-21c20.29-26.82 26.64-59.62 17.88-92.37-9.56-35.78-36-65.92-70.67-80.62-18.47-7.78-38.82-11.75-60.57-11.75zM502.66-105.74A410.9 410.9 0 0 0 438 710.87a415.43 415.43 0 0 0 65.87 5.3 410.58 410.58 0 0 0 393.38-294.33 39.28 39.28 0 0 0-4.43-32 38.79 38.79 0 0 0-26.65-17.6 38.39 38.39 0 0 0-6.23-0.5 38.93 38.93 0 0 0-37.21 27.71c-41.37 140.64-172.67 238.89-319.31 238.89a335 335 0 0 1-55.42-4.65c-179.35-30.16-302.15-200.85-273.73-380.5 25.35-160.26 166.71-281.1 328.82-281.1 5.49 0 11 0.14 16.45 0.41h1.89a38 38 0 0 0 37.46-32l0.21-1.23a38.26 38.26 0 0 0-35.73-44.53 463 463 0 0 0-20.71-0.48z"  horiz-adv-x="1024" />
      
      <glyph glyph-name="forward-null" unicode="&#58898;" d="M547.2 32c-4.1 0-8.2 0.8-12.2 2.4-12 4.9-19.8 16.6-19.8 29.6V258.6c-129.6-30.3-244.3-89.9-325.8-170-10.5-10.3-26.6-12.1-39.1-4.5s-18.2 22.8-13.9 36.8c29.1 93.7 81.4 180 151.2 249.6 64.2 64 142.5 113.1 227.6 143V702.2c0 13 7.8 24.6 19.8 29.6 12 4.9 25.7 2.2 34.9-7L887.3 406c12.4-12.5 12.4-32.6 0-45.1L569.9 41.39999999999998c-6.1-6.1-14.3-9.4-22.7-9.4z m0 298c7.4 0 14.7-2.6 20.5-7.4 7.3-6.1 11.5-15.1 11.5-24.6v-156.4l240.3 241.8-240.3 241.3v-134.3c0-14.1-9.2-26.5-22.6-30.6C425.4 419.6 316.1 332 248.1 216.39999999999998c22.7 14.5 46.6 28 71.6 40.4 68 33.6 142.6 58 221.6 72.7 2 0.3 4 0.5 5.9 0.5z"  horiz-adv-x="1024" />
      
      <glyph glyph-name="zan" unicode="&#58972;" d="M905.6 550.36875c-37.44 9.79125001-125.4721875 9.6-254.304375 13.055625 6.144375 28.1278125 7.48874999 53.47125 7.48875 98.40000001C658.88000001 769.344375 580.544375 863.99999999 511.23124999 863.99999999c-48.95906249 0-89.2790625-40.03125001-89.85562499-89.18437499-0.67124999-60.2878125-19.2-164.446875-119.8078125-217.3434375-7.3921875-3.84-28.41562499-14.2078125-31.4878125-15.64781251l1.53562501-1.34437499a95.04 95.04 0 0 1-59.90343751 23.99999999L121.855625 564.47999999A89.9521875 89.9521875 0 0 1 32 474.624375L32.00000001-4.7999999999999545c0-49.535625 40.32-89.855625 89.855625-89.855625l89.85656248 0a88.8 88.8 0 0 1 79.96781251 51.7434375l1.344375-0.384375 7.2-1.9190625c0.47999999 0 0.7678125-0.09656249 1.3434375-0.28875 17.27999999-4.32 50.4965625-12.19125001 121.44-28.51125 15.36-3.4565625 95.615625-20.64 178.94437499-20.64l163.775625 0c49.92 0 86.87999999 18.6234375 107.23218751 57.79125 19.96875001 34.753125 117.695625 221.28 117.6 484.224375 0 37.824375-26.20781249 86.1121875-84.96 102.9121875ZM241.664375-4.7999999999999545c0-16.5121875-13.44-29.9521875-29.95312499-29.9521875L121.8565625-34.75218749999999a29.9521875 29.9521875 0 0 0-29.95125 29.9521875L91.9053125 474.624375c0 16.51125001 13.44 29.95125001 29.95125 29.95125l89.8565625 0c16.6078125 0 29.9521875-13.44 29.9521875-29.95125L241.66531249-4.7999999999999545ZM929.984375 428.544375c-12.48-300.96000001-109.824375-437.184375-109.82437499-437.184375-9.12-16.31999999-23.615625-26.1121875-54.52781251-26.1121875L601.9521875-34.75218749999999c-82.27218749 0-163.8721875 18.624375-165.984375 19.2-124.415625 28.6078125-130.9434375 30.815625-138.72 33.024375l4.31999999 440.16c0 45.50343749 0.96 33.984375 1e-8 33.4078125C438.464375 547.6800000000001 480.1278125 672 481.28 774.0478125A30.0478125 30.0478125 0 0 0 511.2321875 804c31.68 0 87.6478125-63.55218751 87.6478125-142.2721875 0-71.04000001-2.88-83.23125001-27.744375-157.2478125 299.52 0 297.504375-4.32 323.904375-11.23125001 32.83124999-9.40874999 35.52-36.4809375 35.52-45.88874999 0-10.2721875-0.1921875-8.83125001-0.575625-18.815625Z"  horiz-adv-x="1024" />
      
      <glyph glyph-name="a1" unicode="&#58900;" d="M958.424092 384.150482c0-247.039707-200.281729-447.229498-447.275427-447.229498-125.627944 0-238.366947 52.462151-319.529439 135.805644l0-71.899132c0-21.186875-17.165602-38.351518-38.329013-38.351518-21.162932 0-38.332011 17.164602-38.332011 38.351518l0 178.919013c0 21.139947 17.169079 38.307547 38.332011 38.307547l178.919493 0c21.160413 0 38.328973-17.16756 38.328973-38.307547 0-21.230925-17.16856-38.396447-38.328973-38.396447L232.593446 141.350061c67.837366-77.927165 167.059374-127.767054 278.55522-127.767054 204.711845 0 370.610446 165.900639 370.610446 370.635469 0 1.157215-0.039973 2.313991-0.085942 3.426757-0.217812 3.124402 2.664274 9.304771 2.664274 9.304771 5.287415 14.831144 19.089257 25.553515 35.732174 25.553515s30.490727-10.72233 35.818195-25.553515c0 0 2.53624-8.408419 2.53624-12.731528l0 0L958.424052 384.150482 958.424092 384.150482zM868.961628 550.357913l-178.916974 0c-21.139867 0-38.354476 17.146095-38.354476 38.309546 0 21.195869 17.214569 38.341524 38.354476 38.341524l99.767678 0c-67.837926 77.991562-167.210791 127.820897-278.663626 127.820897-194.315254 0-353.314972-149.628392-368.977034-339.882839-0.237359-2.925536-4.235209-17.952068-4.235209-17.952068-5.305963-14.830625-19.133747-25.552995-35.776703-25.552995-16.639918 0-30.445238 10.72237-35.751201 25.552995 0 0-2.577772 10.656415-2.577772 12.732048 0 4.695896 3.298803 20.181077 3.667553 23.675748 24.57166 223.734708 213.317611 398.110721 443.650365 398.110721 125.386588 0 238.434342-51.839533 319.461445-135.02925L830.61015 767.628364c0 21.142465 17.209572 38.310026 38.351518 38.310026 21.143944 0 38.396447-17.16756 38.396447-38.310026l0-178.971937C907.358075 567.504008 890.105572 550.357913 868.961628 550.357913L868.961628 550.357913z"  horiz-adv-x="1024" />
      
      <glyph glyph-name="zhuye" unicode="&#58901;" d="M585.143 896S224.305 591.238 21.9429 427.886c-14.6286-9.75238-21.9429-26.819-21.9429-43.8857 0-31.6952 26.819-56.0762 58.5143-56.0762h117.029v-397.41C175.543-103.61900000000003 202.362-128 234.057-128h175.543c31.6952 0 58.5143 24.381 58.5143 56.0762v226.743h234.057v-226.743c0-31.6952 26.819-56.0762 58.5143-56.0762h175.543c31.6952 0 58.5143 24.381 58.5143 56.0762V327.924h117.029c31.6952 0 58.5143 24.381 58.5143 56.0762 0 17.0667-7.31429 34.1333-21.9429 43.8857C945.981 591.238 585.143 896 585.143 896Z"  horiz-adv-x="1170" />
      
      <glyph glyph-name="shezhi1" unicode="&#58902;" d="M859.83 389.4c-0.26 50.02 29.27 93 71.78 112.88-9.86 35.72-23.95 70.85-43.53 104.36-19.99 34.22-44.23 64.31-71.18 90.84-38.25-27.65-90.53-32.39-134.2-7.48-43.56 24.86-66.06 72.11-61.86 118.99-73.22 19.04-151.28 18.69-226.4-2.16 4.81-46.94-17.22-94.57-60.62-119.93-43.19-25.23-95.19-21.16-133.67 5.74-54.74-55.48-92.98-123.53-111.97-196.79 43.24-19.23 73.62-62.24 73.88-112.64 0.25-50.02-29.27-93-71.79-112.88 9.86-35.72 23.95-70.84 43.53-104.36 19.99-34.22 44.23-64.31 71.18-90.84 38.25 27.65 90.53 32.39 134.2 7.48 43.56-24.86 66.06-72.11 61.86-118.99 73.22-19.04 151.28-18.69 226.4 2.16-4.81 46.94 17.22 94.57 60.62 119.93 43.19 25.23 95.19 21.16 133.67-5.74 54.74 55.48 92.98 123.53 111.97 196.79-43.23 19.23-73.61 62.24-73.87 112.64zM506.1 217.12c-61.28 0-120.99 31.6-154.07 88.22-24 41.07-30.56 89.04-18.49 135.05 12.08 46.01 41.35 84.57 82.42 108.56 41.08 24 89.03 30.56 135.05 18.49 46.01-12.08 84.57-41.35 108.56-82.42 49.54-84.79 20.85-194.07-63.94-243.61-28.16-16.46-59.05-24.29-89.53-24.29z m-0.48 283.42c-18.44 0-36.61-4.88-52.95-14.43-24.29-14.19-41.6-36.99-48.74-64.2s-3.26-55.57 10.93-79.87c29.3-50.15 93.93-67.1 144.07-37.81 50.14 29.3 67.11 93.93 37.81 144.07-14.19 24.29-36.99 41.6-64.21 48.74-8.9 2.35-17.94 3.5-26.91 3.5z"  horiz-adv-x="1024" />
      
      <glyph glyph-name="shipin-bofangshu" unicode="&#58914;" d="M853.333333 384a61.269333 61.269333 0 0 0-29.44-51.712L322.176 11.562667A69.717333 69.717333 0 0 0 213.333333 63.274667V704.725333a69.717333 69.717333 0 0 0 108.842667 51.797334l501.717333-320.810667A61.269333 61.269333 0 0 0 853.333333 384z"  horiz-adv-x="1024" />
      
      <glyph glyph-name="renwu" unicode="&#58904;" d="M128 896h64v-128a64 64 0 0 1 64-64h512a64 64 0 0 1 64 64V896h64a128 128 0 0 0 128-128v-768a128 128 0 0 0-128-128H128A128 128 0 0 0 0 0V768A128 128 0 0 0 128 896z m641.152-355.776L465.216 236.288 289.344 441.472l-72.896-62.464 243.328-283.904L836.992 472.32l-67.84 67.904zM768 896v-64a64 64 0 0 0-64-64H320a64 64 0 0 0-64 64V896h512z"  horiz-adv-x="1024" />
      
      <glyph glyph-name="Esc" unicode="&#58905;" d="M849.92 640v-55.893333H606.933333v-168.106667h196.906667V362.666667h-196.906667v-172.8h243.2v-55.893334H538.026667V640zM1143.68 432.64a13.866667 13.866667 0 0 0-13.013333-7.68 24.533333 24.533333 0 0 0-11.946667 3.84q-6.613333 3.84-16.426667 8.746667a155.093333 155.093333 0 0 1-23.04 8.746666 110.72 110.72 0 0 1-31.786666 4.053334 94.08 94.08 0 0 1-28.586667-4.053334 68.906667 68.906667 0 0 1-21.333333-11.093333 49.28 49.28 0 0 1-13.866667-16.426667 44.16 44.16 0 0 1-4.693333-21.333333 33.92 33.92 0 0 1 7.893333-23.04 68.906667 68.906667 0 0 1 21.333333-16 182.826667 182.826667 0 0 1 29.653334-11.733333l34.133333-10.88q17.493333-5.76 34.133333-12.8a123.946667 123.946667 0 0 0 29.653334-17.706667 80.853333 80.853333 0 0 0 21.333333-26.026667 79.573333 79.573333 0 0 0 7.893333-36.906666 116.906667 116.906667 0 0 0-8.746666-45.653334 99.84 99.84 0 0 0-26.24-36.48 126.08 126.08 0 0 0-42.666667-24.106666 174.293333 174.293333 0 0 0-58.026667-8.746667 180.693333 180.693333 0 0 0-69.333333 12.8A171.733333 171.733333 0 0 0 909.013333 170.666667l14.933334 24.106666a21.333333 21.333333 0 0 0 6.613333 7.04 18.986667 18.986667 0 0 0 10.24 2.56 23.68 23.68 0 0 0 13.44-4.906666q7.04-4.906667 17.066667-10.88a131.84 131.84 0 0 1 24.32-10.88 110.933333 110.933333 0 0 1 35.84-4.906667 98.346667 98.346667 0 0 1 32.213333 4.693333 67.626667 67.626667 0 0 1 23.04 12.8 51.2 51.2 0 0 1 13.653333 18.773334 58.24 58.24 0 0 1 4.48 22.613333 37.546667 37.546667 0 0 1-8.106666 24.32 67.2 67.2 0 0 1-21.333334 16.64 171.946667 171.946667 0 0 1-29.866666 11.946667l-34.346667 10.88q-17.493333 5.546667-34.346667 12.8a120.32 120.32 0 0 0-29.866666 18.133333 82.346667 82.346667 0 0 0-21.333334 27.093333 87.466667 87.466667 0 0 0-7.893333 39.04 95.36 95.36 0 0 0 8.533333 39.466667 96.64 96.64 0 0 0 24.746667 33.28 121.813333 121.813333 0 0 0 39.893333 22.826667 159.786667 159.786667 0 0 0 53.973334 8.533333 170.666667 170.666667 0 0 0 64-11.093333 149.333333 149.333333 0 0 0 48.64-30.506667zM1489.493333 427.946667a28.16 28.16 0 0 0-5.76-5.973334 13.44 13.44 0 0 0-8.106666-2.133333 21.333333 21.333333 0 0 0-11.52 4.48 167.466667 167.466667 0 0 1-15.786667 9.813333 132.266667 132.266667 0 0 1-23.04 9.813334 122.666667 122.666667 0 0 1-79.786667-4.906667 89.813333 89.813333 0 0 1-33.493333-27.306667 122.453333 122.453333 0 0 1-21.333333-42.666666 213.333333 213.333333 0 0 1-6.826667-56.106667 205.226667 205.226667 0 0 1 8.106667-56.96 125.013333 125.013333 0 0 1 21.333333-42.666667 88.96 88.96 0 0 1 32.64-26.24 100.906667 100.906667 0 0 1 42.666667-8.96 110.506667 110.506667 0 0 1 37.76 5.546667 114.773333 114.773333 0 0 1 24.32 11.52 180.693333 180.693333 0 0 1 16.213333 12.16 19.626667 19.626667 0 0 0 12.8 5.546667 13.226667 13.226667 0 0 0 11.946667-5.973334l17.706666-23.04a136.106667 136.106667 0 0 0-58.24-42.666666 206.72 206.72 0 0 0-73.813333-13.226667 156.373333 156.373333 0 0 0-62.293333 12.373333 142.08 142.08 0 0 0-49.92 35.84A170.666667 170.666667 0 0 0 1232.213333 234.666667a232.32 232.32 0 0 0-12.16 78.08 234.666667 234.666667 0 0 0 11.093334 73.813333 167.253333 167.253333 0 0 0 32.426666 58.453333 147.2 147.2 0 0 0 52.906667 38.4 178.133333 178.133333 0 0 0 72.106667 13.866667 170.666667 170.666667 0 0 0 66.346666-12.16 159.146667 159.146667 0 0 0 51.2-34.346667zM1962.666667 832a21.333333 21.333333 0 0 0 21.333333-21.333333v-853.333334a21.333333 21.333333 0 0 0-21.333333-21.333333H85.333333a21.333333 21.333333 0 0 0-21.333333 21.333333V810.666667a21.333333 21.333333 0 0 0 21.333333 21.333333h1877.333334m0 64H85.333333a85.333333 85.333333 0 0 1-85.333333-85.333333v-853.333334a85.333333 85.333333 0 0 1 85.333333-85.333333h1877.333334a85.333333 85.333333 0 0 1 85.333333 85.333333V810.666667a85.333333 85.333333 0 0 1-85.333333 85.333333z"  horiz-adv-x="2048" />
      
      <glyph glyph-name="success_no_circle" unicode="&#58930;" d="M89.216 320.971c-6.502 7.224-10.475 15.893-12.642 26.368-1.806 10.475-0.722 20.227 3.973 29.257l4.696 10.475c5.057 8.308 11.558 13.726 19.866 15.893 7.946 2.167 15.893 0.361 23.478-5.418l195.409-140.868c8.308-5.779 17.699-8.669 27.812-8.308 10.114 0.361 18.782 3.612 26.006 10.114l520.488 429.105c7.585 5.779 16.254 8.308 26.006 7.585s18.060-4.334 24.923-10.475l-12.642 12.642c6.502-7.224 9.752-15.17 9.752-24.562 0-9.391-3.251-17.338-9.752-24.562l-560.581-568.528c-7.224-7.224-15.17-10.475-24.2-10.475-9.030 0-16.976 3.251-24.2 9.752l-238.392 242.004z"  horiz-adv-x="1024" />
      
      <glyph glyph-name="alipay_app" unicode="&#58906;" d="M230.41 319.46299999999997c-12.0909-9.72886-25.0459-23.9153-28.8049-41.9832-5.12007-24.6642-1.06578-55.5431 22.7271-79.7536 28.8265-29.3666 72.6388-37.396 91.5564-38.7786 51.4024-3.72303 106.189 21.7621 147.481 50.8335 16.1884 11.4211 43.8987 34.3571 70.3848 69.7367-59.3669 30.6412-133.475 64.5518-212.703 61.232-40.4709-1.70669-69.4558-10.0961-90.6418-21.2868Zm752.867-135.556a509.436 509.436 0 0 1 40.7301 200.093c0 282.31-229.669 512-512.007 512S0 666.317 0 384.007c0-282.346 229.669-512.007 512.007-512.007 170.388 0 321.499 83.7215 414.625 212.127-87.9918 43.7402-233.017 115.738-322.356 159.298-42.6313-48.5867-105.649-97.3102-176.841-118.489-44.7196-13.3007-85.0393-18.3775-127.202-9.75766-41.7383 8.55506-72.4731 28.092-90.397 47.6937-9.13116 9.9881-19.6161 22.6983-27.199 37.8136 0.712921-1.91553 1.20261-3.05332 1.20261-3.05332s-4.35674 7.51808-7.69811 19.5009a86.1699 86.1699 0 0 0-3.34137 18.1543 93.8464 93.8464 0 0 0-0.201634 13.0342c-0.374464 7.71251-0.064811 15.7923 1.67068 24.0665 4.18391 20.2498 12.8182 43.8051 35.1708 65.6896 49.062 48.0466 114.773 50.6318 148.813 50.4302 50.423-0.29525 138.048-22.3526 211.817-48.4499C590.501 383.57500000000005 603.614 430.131 612.075 461.161H305.31V494.33h157.52v66.3377h-190.688v33.1688h190.688v66.3161c0 9.10235 1.80031 16.5844 16.5844 16.5844h74.6119v-82.9005h207.302v-33.1688H554.034v-66.3377h165.823S703.2 401.499 651.135 310.015c115.558-41.2846 278.133-104.864 332.142-126.108Z"  horiz-adv-x="1027" />
      
      <glyph glyph-name="wechat_pay" unicode="&#58907;" d="M390.4 280.5c-4.1-2.1-8.3-3.1-13.4-3.1-11.4 0-20.7 6.2-25.9 15.5L349 297l-81.7 178c-1 2.1-1 4.1-1 6.2 0 8.3 6.2 14.5 14.5 14.5 3.1 0 6.2-1 9.3-3.1l96.2-68.3c7.2-4.1 15.5-7.2 24.8-7.2 5.2 0 10.3 1 15.5 3.1l451.1 200.7C797 716.1 663.6 778.2 512.5 778.2c-246.2 0-446.9-166.6-446.9-372.4 0-111.7 60-213.1 154.1-281.4 7.2-5.2 12.4-14.5 12.4-23.8 0-3.1-1-6.2-2.1-9.3-7.2-27.9-19.7-73.5-19.7-75.5-1-3.1-2.1-7.2-2.1-11.4 0-8.3 6.2-14.5 14.5-14.5 3.1 0 6.2 1 8.3 3.1l97.2 56.9c7.2 4.1 15.5 7.2 23.8 7.2 4.1 0 9.3-1 13.4-2.1 45.5-13.4 95.2-20.7 145.9-20.7 246.2 0 446.9 166.6 446.9 372.4 0 62.1-18.6 121-50.7 172.8l-514-296.9-3.1-2.1z"  horiz-adv-x="1024" />
      
      <glyph glyph-name="saying" unicode="&#58908;" d="M349.19359209-50.87394961999996A46.00840342 46.00840342 0 0 1 415.37006299-50.87394961999996a46.00840342 46.00840342 0 0 1 0 63.02521056 520.58823487 520.58823487 0 0 0 0 735.50420155 47.26890791 47.26890791 0 0 1 0 66.80672228 47.26890791 47.26890791 0 0 1-66.80672226 0A614.49579844 614.49579844 0 0 1 349.19359209-50.87394961999996zM556.54653359 114.88235333a47.26890791 47.26890791 0 0 1 63.02520967-1e-8 46.63865566 46.63865566 0 0 1 0 63.02520967 299.36974747 299.36974747 0 0 0 0 422.26890732 47.26890791 47.26890791 0 0 1 0 63.02521055 46.63865566 46.63865566 0 0 1-63.02520967-1e-8 393.90756329 393.90756329 0 0 1 0-548.31932752zM833.85745771 329.79831914a78.15126094 78.15126094 0 0 1 0 110.92436982 78.7815123 78.7815123 0 1 1 0-110.92436982z"  horiz-adv-x="1024" />
      
      <glyph glyph-name="xiangji" unicode="&#58909;" d="M630.311385 564.145231A235.677538 235.677538 0 0 0 865.673846 328.861538a235.441231 235.441231 0 0 0-235.283692-235.362461A235.52 235.52 0 0 0 395.027692 328.861538a235.52 235.52 0 0 0 235.283693 235.283693z m550.439384 142.966154c43.480615 0 78.769231-35.209846 78.532923-78.690462v-661.346461a78.690462 78.690462 0 0 0-78.76923-78.769231H78.769231a78.690462 78.690462 0 0 0-78.690462 78.769231V628.657231c0 43.480615 35.209846 78.690462 78.690462 78.690461h156.199384c29.932308 0 57.028923 16.699077 70.419693 43.480616L356.115692 852.519385C369.427692 879.064615 396.603077 896 426.535385 896h406.44923c29.932308 0 57.028923-16.935385 70.419693-43.638154l50.569846-101.612308c13.154462-26.702769 40.487385-43.638154 70.419692-43.638153h156.356923z m-550.439384-692.066462a314.289231 314.289231 0 0 1 313.974153 313.974154 314.289231 314.289231 0 0 1-313.974153 313.974154 314.289231 314.289231 0 0 1-313.974154-313.974154 314.289231 314.289231 0 0 1 313.974154-313.974154z m451.899077 501.051077l0 0z"  horiz-adv-x="1260" />
      
      <glyph glyph-name="biaoqing" unicode="&#59144;" d="M512-128C229.376-128 0 101.376 0 384S229.376 896 512 896s512-229.376 512-512-229.376-512-512-512z m0 157.696c174.08 0 314.88 141.312 314.88 314.88h-629.76c0-174.08 140.8-314.88 314.88-314.88zM354.304 502.272c43.52 0 78.848 35.328 78.848 78.848s-35.328 78.848-78.848 78.848S275.456 624.64 275.456 581.12s35.328-78.848 78.848-78.848z m315.392 0c43.52 0 78.848 35.328 78.848 78.848s-35.328 78.848-78.848 78.848-78.848-35.328-78.848-78.848 35.328-78.848 78.848-78.848z"  horiz-adv-x="1024" />
      
      <glyph glyph-name="jianpan" unicode="&#58916;" d="M272.44808 337.452215v-67.44815c0-7.633222-3.828145-11.449832-11.465211-11.449832h-67.472501c-7.638348 0-11.457522 3.816611-11.457522 11.449832V337.452215c0 7.63963 3.819174 11.457522 11.457522 11.457522h67.472501c7.637066 0 11.465212-3.817892 11.465211-11.457522z m91.660175 181.98364v-67.445587c0-7.635785-3.826864-11.453677-11.461366-11.453677l-159.136521 0.001281c-7.638348 0-11.457522 3.816611-11.457522 11.452396v67.445587c0 7.633222 3.819174 11.457522 11.457522 11.457522h159.136521c7.634503-0.006408 11.461367-3.8243 11.461366-11.457522z m-91.660175 181.983639v-68.723344c0-7.635785-3.828145-11.453677-11.465211-11.453677h-67.472501c-7.638348 0-11.457522 3.817892-11.457522 11.453677v68.723344c0 7.633222 3.819174 11.451114 11.457522 11.451114h67.472501c7.637066 0 11.465212-3.817892 11.465211-11.451114zM1000.658183 337.452215v-67.44815c0-7.633222-3.819174-11.449832-11.465212-11.449832H375.563214c-7.638348 0-11.465212 3.816611-11.465211 11.449832V337.452215c0 7.63963 3.828145 11.457522 11.465211 11.457522h613.631039c7.644756 0 11.46393-3.817892 11.46393-11.457522z m-454.494518 181.98364v-67.445587c0-7.635785-3.8243-11.453677-11.462649-11.453677l-68.742568 0.001281c-7.646038 0-11.465212 3.816611-11.465211 11.452396v67.445587c0 7.633222 3.819174 11.457522 11.465211 11.457522h68.742568c7.638348-0.006408 11.462648-3.8243 11.462649-11.457522z m-91.670428 181.983639v-68.723344c0-7.635785-3.819174-11.453677-11.457522-11.453677h-67.471219c-7.638348 0-11.46393 3.817892-11.46393 11.453677v68.723344c0 7.633222 3.826864 11.451114 11.46393 11.451114h67.4725c7.638348 0 11.457522-3.817892 11.457522-11.451114z m272.44808-181.983639v-67.445587c0-7.635785-3.397527-11.453677-10.184891-11.453677H648.003605c-7.638348 0-11.457522 3.817892-11.457522 11.453677v67.445587c0 7.633222 3.819174 11.457522 11.457522 11.457522h68.751539c6.787364-0.006408 10.184891-3.8243 10.184891-11.457522z m-90.392671 181.983639v-68.723344c0-7.635785-3.819174-11.453677-11.457522-11.453677h-67.471219c-7.646038 0-11.46393 3.817892-11.46393 11.453677v68.723344c0 7.633222 3.819174 11.451114 11.46393 11.451114h67.471219c7.638348 0 11.457522-3.817892 11.457522-11.451114z m272.44808-181.983639v-67.445587c0-7.635785-3.826864-11.453677-11.465212-11.453677h-67.471219c-7.638348 0-11.457522 3.817892-11.457522 11.453677v67.445587c0 7.633222 3.819174 11.457522 11.457522 11.457522h67.471219c7.646038-0.006408 11.465212-3.8243 11.465212-11.457522zM1182.71231 337.452215v-67.44815c0-7.633222-3.825582-11.449832-11.46393-11.449832h-68.742568c-7.646038 0-11.465212 3.816611-11.465211 11.449832V337.452215c0 7.63963 3.819174 11.457522 11.465211 11.457522h68.742568c7.647319 0 11.46393-3.817892 11.46393-11.457522zM818.602773 701.419494v-68.723344c0-7.635785-3.819174-11.453677-11.457521-11.453677h-68.748977c-7.638348 0-11.45624 3.817892-11.45624 11.453677v68.723344c0 7.633222 3.819174 11.451114 11.45624 11.451114h68.750258c7.638348 0 11.457522-3.817892 11.457522-11.451114z m182.05541 0v-68.723344c0-7.635785-3.819174-11.453677-11.465212-11.453677h-68.742568c-7.638348 0-11.454959 3.817892-11.454959 11.453677v68.723344c0 7.633222 3.816611 11.451114 11.454959 11.451114h68.742568c7.646038 0 11.465212-3.817892 11.465212-11.451114z m182.054127 0V451.988986c0-7.635785-3.825582-11.452395-11.46393-11.452395H1012.114423c-7.638348 0-11.457522 3.816611-11.457522 11.452395v67.445587c0 7.633222 3.819174 11.457522 11.457522 11.457522h78.936431V701.419494c0 7.633222 3.819174 11.451114 11.457521 11.451114h68.741287c7.646038 0 11.462648-3.817892 11.462648-11.451114zM90.392671 166.922253h1182.705902V803.226113H90.391389v-636.302579zM1363.49637 803.226113v-636.302579c0-24.605477-8.91995-45.813427-26.745752-63.625131-17.825802-17.819394-39.029907-26.72781-63.650763-26.72781H90.391389c-24.619574 0-45.831369 8.910979-63.654608 26.72781C8.907134 121.112671 0 142.325747 0 166.922253V803.226113c0 25.452616 8.907134 47.083494 26.738063 64.900325C44.561302 885.95224 65.771815 894.855529 90.391389 894.855529h1182.705903c25.462869 0 46.681071-8.903289 63.652045-26.726528 16.985071-17.818113 25.890924-39.448991 26.745752-64.900325zM681.901977-128l204.571875 136.380395H477.331384L681.903259-128z"  horiz-adv-x="1363" />
      
      <glyph glyph-name="ID" unicode="&#59089;" d="M128 682.88C128 729.92 166.08 768 213.12 768h597.76c47.04 0 85.12-38.08 85.12-85.12v-597.76A85.12 85.12 0 0 0 810.88 0H213.12A85.12 85.12 0 0 0 128 85.12V682.88z m85.312-0.192v-597.376h597.376V682.688H213.312z m126.848-562.368a425.856 425.856 0 0 0-74.752 41.728 298.432 298.432 0 0 0 250.944 136.64c102.4 0 192.704-51.52 246.528-130.048-23.04-16.96-47.616-31.616-73.6-43.712a213.056 213.056 0 0 1-172.928 88.384 213.12 213.12 0 0 1-176.192-92.992zM512 341.312A149.312 149.312 0 1 0 512 640a149.312 149.312 0 0 0 0-298.688z m0 85.376a64 64 0 1 1 0 128 64 64 0 0 1 0-128z"  horiz-adv-x="1024" />
      
      <glyph glyph-name="caozuochenggong" unicode="&#58910;" d="M512 896C231.905882 896 0 664.094118 0 384s231.905882-512 512-512 512 231.905882 512 512S795.105882 896 512 896z m0-960.752941C262.023529-64.752941 63.247059 134.023529 63.247059 384S262.023529 832.752941 512 832.752941 960.752941 633.976471 960.752941 384 761.976471-64.752941 512-64.752941z m231.905882 614.4L436.705882 242.447059l-153.6 153.6c-18.070588 18.070588-45.176471 18.070588-57.223529 0-12.047059-18.070588-18.070588-45.176471 0-57.22353l180.705882-180.705882c18.070588-18.070588 45.176471-18.070588 57.22353 0l340.329411 340.329412c18.070588 18.070588 18.070588 45.176471 0 57.223529-15.058824 15.058824-42.164706 15.058824-60.235294-6.023529z"  horiz-adv-x="1024" />
      
      <glyph glyph-name="shenqing" unicode="&#59313;" d="M775.5776 890.129067c53.589333 0 97.143467-43.6224 97.143467-97.143467v-226.645333a37.546667 37.546667 0 0 0-75.093334 0V792.917333a22.3232 22.3232 0 0 1-22.050133 22.050134H145.066667a22.3232 22.3232 0 0 1-22.050134-22.050134v-777.898666c0-11.946667 10.103467-22.050133 22.050134-22.050134h175.650133a37.546667 37.546667 0 0 0 0-75.093333H145.066667a97.211733 97.211733 0 0 0-97.143467 97.143467V792.9856C47.9232 846.506667 91.477333 890.129067 145.066667 890.129067h630.510933z m45.056-388.5056l127.249067-113.390934c20.48-18.2272 21.981867-49.9712 3.413333-70.8608L873.813333 229.512533a37.546667 37.546667 0 1 0-56.32 49.629867l61.576534 69.768533-89.429334 79.735467-289.109333-324.471467c0.136533-1.8432 0.273067-3.618133 0.273067-5.461333l2.048-91.272533 79.803733 9.216c1.297067 1.297067 2.525867 2.594133 3.754667 4.027733l0.273066 0.273067 158.446934 174.08a37.546667 37.546667 0 0 0 55.569066-50.517334l-158.378666-173.943466a146.2272 146.2272 0 0 0-16.1792-15.701334c-14.7456-12.014933-27.8528-14.472533-38.161067-13.243733l-158.5152-18.158933-3.6864 172.032c-6.485333 20.411733 3.413333 41.437867 15.223467 54.749866l308.701866 346.589867c8.669867 9.693867 20.48 15.701333 33.314134 16.930133 13.653333 1.365333 27.374933-3.140267 37.546666-12.151466zM463.803733 328.021333a37.546667 37.546667 0 0 0 0-75.093333H242.0736a37.546667 37.546667 0 0 0 0 75.093333h221.7984z m107.861334 187.733334a37.546667 37.546667 0 0 0 0-75.093334H240.981333a37.546667 37.546667 0 0 0 0 75.093334h330.888534z m51.677866 183.9104a37.546667 37.546667 0 0 0 0-75.093334H240.64a37.546667 37.546667 0 0 0 0 75.093334h382.7712z"  horiz-adv-x="1024" />
      
      <glyph glyph-name="down" unicode="&#58911;" d="M514.41664 158.63296000000003a25.7536 25.7536 0 0 0-17.6384 6.93248 10.56768 10.56768 0 0 1-0.94208 1.05984 14.9248 14.9248 0 0 1-2.72384 2.03264l-398.42304 394.8544a25.78432 25.78432 0 0 0-7.68 18.30912 25.75872 25.75872 0 0 0 7.51616 18.36544 25.76896 25.76896 0 0 0 18.42176 7.68c6.8864 0 13.36832-2.66752 18.25792-7.51616l382.84288-379.40736 377.59488 381.04576a25.82016 25.82016 0 0 0 18.7904 8.064c6.72256 0 13.1072-2.57024 17.95584-7.23456a25.73312 25.73312 0 0 0 7.94624-18.16576 25.74848 25.74848 0 0 0-7.22944-18.46272l-396.29312-399.89248a25.74848 25.74848 0 0 0-18.39616-7.66464z"  horiz-adv-x="1024" />
      
      <glyph glyph-name="xiangshang" unicode="&#59254;" d="M934.4 147.2c12.8-12.8 32-12.8 44.8 0 12.8 12.8 12.8 32 0 44.8L547.2 620.8c-6.4 6.4-16 9.6-22.4 9.6s-16-3.2-22.4-9.6L73.6 192c-12.8-12.8-12.8-32 0-44.8 12.8-12.8 32-12.8 44.8 0l406.4 406.4 409.6-406.4z"  horiz-adv-x="1024" />
      
      </font>
</defs>
</svg>
